<svg xmlns="http://www.w3.org/2000/svg" xmlns:xlink="http://www.w3.org/1999/xlink" width="500" zoomAndPan="magnify" viewBox="0 0 375 374.999991" height="500" preserveAspectRatio="xMidYMid meet" version="1.0"><defs><clipPath id="4f9209bea6"><path d="M 140 21.472656 L 237 21.472656 L 237 143 L 140 143 Z M 140 21.472656 " clip-rule="nonzero"/></clipPath><clipPath id="477852352c"><path d="M 12 223 L 184 223 L 184 353.722656 L 12 353.722656 Z M 12 223 " clip-rule="nonzero"/></clipPath><clipPath id="abab69b9ab"><path d="M 194 223 L 365.429688 223 L 365.429688 353.722656 L 194 353.722656 Z M 194 223 " clip-rule="nonzero"/></clipPath></defs><g clip-path="url(#4f9209bea6)"><path fill="#a64dff" d="M 236.722656 68.988281 C 236.722656 68.339844 236.722656 67.695312 236.664062 67.058594 C 236.664062 66.691406 236.617188 66.332031 236.59375 65.964844 C 236.570312 65.601562 236.59375 65.359375 236.53125 65.058594 C 236.394531 63.585938 236.1875 62.121094 235.914062 60.667969 C 235.644531 59.210938 235.304688 57.773438 234.898438 56.351562 C 234.492188 54.925781 234.023438 53.527344 233.488281 52.144531 C 232.953125 50.765625 232.355469 49.414062 231.695312 48.089844 C 231.035156 46.765625 230.3125 45.476562 229.535156 44.21875 C 228.753906 42.960938 227.917969 41.738281 227.027344 40.558594 C 226.136719 39.378906 225.191406 38.242188 224.195312 37.148438 C 223.195312 36.054688 222.152344 35.011719 221.058594 34.015625 C 219.964844 33.015625 218.824219 32.074219 217.644531 31.183594 C 216.464844 30.289062 215.242188 29.457031 213.984375 28.675781 C 212.726562 27.898438 211.4375 27.179688 210.109375 26.519531 C 208.785156 25.859375 207.433594 25.261719 206.054688 24.730469 C 204.675781 24.195312 203.273438 23.726562 201.847656 23.320312 C 200.425781 22.914062 198.988281 22.578125 197.53125 22.304688 C 196.078125 22.035156 194.613281 21.828125 193.140625 21.691406 C 191.667969 21.554688 190.191406 21.488281 188.710938 21.488281 C 187.230469 21.488281 185.753906 21.554688 184.28125 21.691406 C 182.808594 21.828125 181.34375 22.035156 179.890625 22.304688 C 178.433594 22.578125 176.996094 22.914062 175.574219 23.320312 C 174.148438 23.726562 172.746094 24.195312 171.367188 24.730469 C 169.988281 25.261719 168.636719 25.859375 167.3125 26.519531 C 165.988281 27.179688 164.695312 27.898438 163.4375 28.675781 C 162.179688 29.457031 160.957031 30.289062 159.777344 31.183594 C 158.597656 32.074219 157.460938 33.015625 156.367188 34.015625 C 155.273438 35.011719 154.226562 36.054688 153.230469 37.148438 C 152.230469 38.242188 151.285156 39.378906 150.394531 40.558594 C 149.503906 41.738281 148.667969 42.960938 147.886719 44.21875 C 147.109375 45.476562 146.386719 46.765625 145.726562 48.089844 C 145.066406 49.414062 144.46875 50.765625 143.933594 52.144531 C 143.398438 53.527344 142.929688 54.925781 142.523438 56.351562 C 142.117188 57.773438 141.78125 59.210938 141.507812 60.667969 C 141.234375 62.121094 141.03125 63.585938 140.890625 65.058594 C 140.890625 65.234375 140.890625 65.417969 140.890625 65.59375 C 140.851562 66.101562 140.8125 66.613281 140.789062 67.128906 C 140.789062 67.457031 140.789062 67.792969 140.789062 68.117188 C 140.789062 68.445312 140.789062 68.914062 140.789062 69.371094 C 140.792969 71.414062 140.925781 73.449219 141.191406 75.472656 C 141.453125 77.5 141.84375 79.5 142.363281 81.480469 C 142.878906 83.457031 143.519531 85.390625 144.28125 87.285156 C 145.046875 89.183594 145.925781 91.019531 146.925781 92.804688 C 147.921875 94.589844 149.027344 96.300781 150.242188 97.945312 C 151.457031 99.585938 152.773438 101.148438 154.183594 102.621094 C 155.597656 104.097656 157.097656 105.480469 158.6875 106.765625 C 160.277344 108.050781 161.9375 109.230469 163.679688 110.304688 L 164.476562 110.78125 C 164.929688 111.042969 165.375 111.316406 165.835938 111.578125 L 165.902344 111.578125 L 166.027344 111.640625 C 166.410156 111.847656 166.824219 112.054688 167.183594 112.253906 C 166.753906 112.039062 166.316406 111.808594 165.894531 111.585938 C 168.625 113.261719 171.164062 115.191406 173.507812 117.375 C 175.851562 119.558594 177.957031 121.953125 179.820312 124.558594 C 181.6875 127.164062 183.273438 129.929688 184.585938 132.851562 C 185.898438 135.777344 186.90625 138.800781 187.613281 141.925781 C 187.613281 141.972656 187.613281 142.015625 187.613281 142.0625 C 187.683594 142.320312 187.824219 142.527344 188.039062 142.6875 C 188.25 142.851562 188.488281 142.929688 188.753906 142.929688 C 189.019531 142.929688 189.261719 142.851562 189.472656 142.6875 C 189.683594 142.527344 189.828125 142.320312 189.898438 142.0625 C 189.890625 142.007812 189.890625 141.949219 189.898438 141.894531 C 190.609375 138.773438 191.621094 135.753906 192.933594 132.835938 C 194.246094 129.917969 195.835938 127.160156 197.699219 124.558594 C 199.5625 121.957031 201.667969 119.570312 204.011719 117.390625 C 206.351562 115.210938 208.886719 113.28125 211.617188 111.609375 L 210.324219 112.277344 C 210.683594 112.097656 211.035156 111.90625 211.386719 111.714844 L 211.617188 111.601562 C 212.246094 111.257812 212.875 110.890625 213.488281 110.511719 L 213.800781 110.335938 L 213.855469 110.335938 C 215.597656 109.265625 217.265625 108.089844 218.859375 106.804688 C 220.449219 105.523438 221.953125 104.144531 223.371094 102.671875 C 224.785156 101.195312 226.101562 99.636719 227.316406 97.996094 C 228.535156 96.351562 229.640625 94.636719 230.640625 92.855469 C 231.636719 91.070312 232.519531 89.230469 233.28125 87.332031 C 234.042969 85.433594 234.683594 83.496094 235.195312 81.519531 C 235.710938 79.539062 236.097656 77.539062 236.359375 75.511719 C 236.617188 73.480469 236.746094 71.445312 236.746094 69.402344 C 236.730469 69.242188 236.722656 69.113281 236.722656 68.988281 Z M 236.722656 68.988281 " fill-opacity="1" fill-rule="nonzero"/></g><path fill="#ff4d4d" d="M 339.125 161.523438 C 339.125 163.097656 339.050781 164.667969 338.894531 166.234375 C 338.742188 167.800781 338.511719 169.355469 338.207031 170.898438 C 337.898438 172.441406 337.519531 173.964844 337.0625 175.472656 C 336.605469 176.976562 336.078125 178.457031 335.472656 179.910156 C 334.871094 181.367188 334.199219 182.785156 333.460938 184.175781 C 332.71875 185.5625 331.910156 186.910156 331.035156 188.21875 C 330.164062 189.527344 329.226562 190.789062 328.230469 192.007812 C 327.230469 193.222656 326.175781 194.386719 325.0625 195.5 C 323.949219 196.613281 322.785156 197.667969 321.570312 198.667969 C 320.355469 199.664062 319.089844 200.601562 317.785156 201.476562 C 316.476562 202.351562 315.128906 203.160156 313.738281 203.902344 C 312.351562 204.644531 310.929688 205.316406 309.476562 205.917969 C 308.023438 206.519531 306.542969 207.050781 305.039062 207.507812 C 303.53125 207.960938 302.007812 208.34375 300.464844 208.652344 C 298.921875 208.957031 297.367188 209.191406 295.800781 209.34375 C 294.234375 209.5 292.664062 209.574219 291.09375 209.574219 L 241.597656 209.574219 C 239.160156 209.605469 236.738281 209.816406 234.332031 210.214844 C 231.921875 210.613281 229.5625 211.191406 227.242188 211.949219 C 224.921875 212.707031 222.675781 213.636719 220.496094 214.734375 C 218.320312 215.835938 216.238281 217.09375 214.25 218.507812 C 212.265625 219.925781 210.398438 221.484375 208.648438 223.183594 C 206.898438 224.886719 205.289062 226.707031 203.816406 228.652344 C 202.347656 230.601562 201.03125 232.644531 199.871094 234.792969 C 198.710938 236.9375 197.71875 239.15625 196.894531 241.453125 C 196.664062 242.085938 196.457031 242.730469 196.25 243.382812 C 196.109375 243.539062 195.9375 243.640625 195.734375 243.6875 C 195.628906 243.71875 195.523438 243.734375 195.414062 243.734375 C 194.988281 243.734375 194.65625 243.558594 194.425781 243.199219 C 194.359375 243.097656 194.3125 242.988281 194.28125 242.875 C 194.28125 242.808594 194.28125 242.753906 194.242188 242.707031 C 194.242188 242.523438 194.164062 242.339844 194.113281 242.164062 L 194.113281 161.523438 C 194.113281 160.207031 194.167969 158.890625 194.277344 157.578125 C 194.386719 156.265625 194.546875 154.957031 194.761719 153.660156 C 194.980469 152.359375 195.25 151.070312 195.570312 149.792969 C 195.890625 148.511719 196.265625 147.25 196.691406 146.003906 C 197.117188 144.757812 197.59375 143.53125 198.121094 142.320312 C 198.648438 141.113281 199.222656 139.929688 199.847656 138.769531 C 200.472656 137.609375 201.144531 136.476562 201.859375 135.371094 C 202.578125 134.265625 203.339844 133.191406 204.144531 132.148438 C 204.953125 131.105469 205.800781 130.097656 206.6875 129.125 C 207.578125 128.152344 208.503906 127.21875 209.472656 126.320312 C 210.4375 125.425781 211.4375 124.570312 212.472656 123.757812 C 213.511719 122.941406 214.578125 122.171875 215.679688 121.445312 C 216.777344 120.71875 217.90625 120.039062 219.0625 119.40625 C 220.21875 118.773438 221.398438 118.1875 222.601562 117.652344 C 223.804688 117.117188 225.027344 116.632812 226.273438 116.195312 C 227.515625 115.761719 228.777344 115.375 230.050781 115.042969 L 231.039062 114.796875 C 234.691406 113.929688 238.394531 113.5 242.148438 113.5 L 291.09375 113.5 C 292.664062 113.5 294.234375 113.574219 295.800781 113.730469 C 297.367188 113.882812 298.917969 114.113281 300.460938 114.421875 C 302.003906 114.726562 303.53125 115.109375 305.035156 115.566406 C 306.539062 116.019531 308.019531 116.550781 309.472656 117.152344 C 310.925781 117.753906 312.347656 118.425781 313.734375 119.167969 C 315.121094 119.910156 316.46875 120.714844 317.777344 121.589844 C 319.085938 122.464844 320.347656 123.398438 321.5625 124.398438 C 322.78125 125.394531 323.945312 126.449219 325.058594 127.5625 C 326.167969 128.675781 327.222656 129.839844 328.222656 131.054688 C 329.21875 132.269531 330.15625 133.53125 331.03125 134.839844 C 331.90625 136.148438 332.710938 137.496094 333.453125 138.882812 C 334.195312 140.269531 334.867188 141.691406 335.46875 143.144531 C 336.070312 144.597656 336.601562 146.078125 337.058594 147.582031 C 337.515625 149.085938 337.894531 150.613281 338.203125 152.15625 C 338.511719 153.699219 338.742188 155.25 338.894531 156.816406 C 339.050781 158.382812 339.125 159.953125 339.125 161.523438 Z M 339.125 161.523438 " fill-opacity="1" fill-rule="nonzero"/><g clip-path="url(#477852352c)"><path fill="#ffd54f" d="M 183.277344 271.324219 L 183.277344 351.957031 C 183.226562 352.125 183.1875 352.308594 183.148438 352.484375 C 183.109375 352.65625 183.148438 352.59375 183.148438 352.648438 C 183.078125 352.90625 182.9375 353.113281 182.726562 353.273438 C 182.511719 353.433594 182.273438 353.511719 182.007812 353.511719 C 181.675781 353.519531 181.398438 353.402344 181.171875 353.160156 C 180.964844 352.515625 180.765625 351.878906 180.527344 351.238281 C 180.113281 350.082031 179.65625 348.941406 179.15625 347.820312 C 178.652344 346.695312 178.109375 345.59375 177.523438 344.511719 C 176.9375 343.433594 176.3125 342.375 175.644531 341.34375 C 174.980469 340.308594 174.273438 339.304688 173.53125 338.324219 C 172.785156 337.347656 172.003906 336.398438 171.1875 335.476562 C 170.371094 334.558594 169.519531 333.671875 168.636719 332.820312 C 167.75 331.964844 166.832031 331.148438 165.886719 330.363281 C 164.9375 329.582031 163.960938 328.835938 162.957031 328.128906 C 161.953125 327.417969 160.921875 326.75 159.863281 326.121094 C 158.808594 325.492188 157.730469 324.90625 156.628906 324.359375 C 155.527344 323.8125 154.40625 323.308594 153.265625 322.851562 C 152.125 322.390625 150.96875 321.972656 149.796875 321.601562 C 148.625 321.230469 147.441406 320.90625 146.242188 320.625 C 145.046875 320.34375 143.839844 320.109375 142.625 319.921875 C 141.410156 319.734375 140.191406 319.59375 138.964844 319.5 C 137.738281 319.40625 136.511719 319.359375 135.28125 319.359375 L 60.363281 319.359375 C 58.792969 319.359375 57.222656 319.28125 55.65625 319.128906 C 54.089844 318.972656 52.535156 318.742188 50.992188 318.4375 C 49.449219 318.128906 47.925781 317.75 46.421875 317.292969 C 44.914062 316.835938 43.4375 316.304688 41.984375 315.703125 C 40.527344 315.101562 39.109375 314.429688 37.722656 313.6875 C 36.335938 312.945312 34.984375 312.140625 33.679688 311.265625 C 32.371094 310.390625 31.109375 309.453125 29.890625 308.457031 C 28.675781 307.457031 27.511719 306.402344 26.398438 305.292969 C 25.285156 304.179688 24.230469 303.015625 23.234375 301.796875 C 22.234375 300.582031 21.300781 299.320312 20.425781 298.011719 C 19.550781 296.703125 18.742188 295.355469 18.003906 293.96875 C 17.261719 292.582031 16.589844 291.160156 15.988281 289.707031 C 15.382812 288.253906 14.855469 286.773438 14.398438 285.269531 C 13.941406 283.765625 13.558594 282.238281 13.253906 280.695312 C 12.945312 279.152344 12.714844 277.597656 12.5625 276.035156 C 12.40625 274.46875 12.332031 272.898438 12.332031 271.324219 C 12.332031 269.753906 12.40625 268.183594 12.5625 266.617188 C 12.714844 265.050781 12.945312 263.496094 13.253906 261.953125 C 13.558594 260.410156 13.941406 258.886719 14.398438 257.382812 C 14.855469 255.875 15.382812 254.398438 15.988281 252.945312 C 16.589844 251.492188 17.261719 250.070312 18.003906 248.683594 C 18.742188 247.296875 19.550781 245.945312 20.425781 244.640625 C 21.300781 243.332031 22.234375 242.070312 23.234375 240.851562 C 24.230469 239.636719 25.285156 238.472656 26.398438 237.359375 C 27.511719 236.246094 28.675781 235.191406 29.890625 234.195312 C 31.109375 233.195312 32.371094 232.261719 33.679688 231.386719 C 34.984375 230.511719 36.335938 229.703125 37.722656 228.964844 C 39.109375 228.222656 40.527344 227.550781 41.984375 226.949219 C 43.4375 226.34375 44.914062 225.816406 46.421875 225.359375 C 47.925781 224.902344 49.449219 224.519531 50.992188 224.214844 C 52.535156 223.90625 54.089844 223.675781 55.65625 223.523438 C 57.222656 223.367188 58.792969 223.292969 60.363281 223.292969 L 135.28125 223.292969 C 136.855469 223.292969 138.421875 223.371094 139.988281 223.527344 C 141.550781 223.679688 143.105469 223.914062 144.648438 224.222656 C 146.1875 224.527344 147.710938 224.910156 149.214844 225.367188 C 150.71875 225.828125 152.199219 226.355469 153.652344 226.960938 C 155.101562 227.5625 156.523438 228.234375 157.910156 228.976562 C 159.296875 229.71875 160.640625 230.527344 161.949219 231.398438 C 163.253906 232.273438 164.515625 233.210938 165.730469 234.207031 C 166.945312 235.207031 168.109375 236.261719 169.222656 237.375 C 170.332031 238.488281 171.386719 239.652344 172.382812 240.867188 C 173.378906 242.082031 174.316406 243.34375 175.1875 244.652344 C 176.0625 245.960938 176.867188 247.304688 177.609375 248.695312 C 178.351562 250.082031 179.023438 251.5 179.625 252.953125 C 180.222656 254.40625 180.753906 255.882812 181.210938 257.390625 C 181.664062 258.894531 182.046875 260.417969 182.355469 261.960938 C 182.660156 263.5 182.890625 265.054688 183.042969 266.621094 C 183.199219 268.183594 183.277344 269.753906 183.277344 271.324219 Z M 183.277344 271.324219 " fill-opacity="1" fill-rule="nonzero"/></g><path fill="#4db8ff" d="M 183.277344 161.523438 L 183.277344 242.15625 C 183.226562 242.332031 183.1875 242.515625 183.148438 242.699219 C 183.148438 242.746094 183.148438 242.800781 183.148438 242.867188 C 183.132812 242.941406 183.101562 243.007812 183.058594 243.074219 C 182.960938 243.273438 182.820312 243.433594 182.628906 243.550781 C 182.4375 243.667969 182.230469 243.726562 182.007812 243.726562 C 181.738281 243.726562 181.496094 243.640625 181.285156 243.472656 C 181.242188 243.445312 181.203125 243.414062 181.171875 243.375 C 180.964844 242.722656 180.765625 242.078125 180.527344 241.445312 C 180.351562 240.945312 180.167969 240.449219 179.960938 239.957031 L 179.792969 239.527344 C 179.59375 239.023438 179.371094 238.523438 179.148438 238.027344 C 178.941406 237.542969 178.707031 237.070312 178.476562 236.601562 C 178.40625 236.457031 178.335938 236.320312 178.269531 236.179688 C 178.121094 235.867188 177.960938 235.566406 177.800781 235.261719 L 177.511719 234.710938 C 177.304688 234.351562 177.113281 234.003906 176.898438 233.652344 C 176.683594 233.300781 176.515625 232.976562 176.300781 232.632812 L 176.300781 232.59375 C 175.800781 231.746094 175.25 230.925781 174.707031 230.121094 C 174.398438 229.675781 174.078125 229.238281 173.742188 228.789062 C 173.410156 228.34375 173.089844 227.9375 172.746094 227.523438 C 170.609375 224.851562 168.214844 222.433594 165.558594 220.273438 C 162.902344 218.113281 160.046875 216.261719 156.996094 214.710938 C 153.941406 213.164062 150.761719 211.957031 147.449219 211.089844 C 144.136719 210.226562 140.773438 209.71875 137.351562 209.574219 C 136.652344 209.574219 135.949219 209.535156 135.242188 209.535156 L 86.296875 209.535156 C 84.726562 209.535156 83.15625 209.457031 81.589844 209.304688 C 80.023438 209.148438 78.46875 208.917969 76.925781 208.613281 C 75.382812 208.304688 73.859375 207.921875 72.355469 207.46875 C 70.847656 207.011719 69.371094 206.480469 67.917969 205.878906 C 66.464844 205.277344 65.042969 204.605469 63.65625 203.863281 C 62.269531 203.121094 60.921875 202.3125 59.613281 201.441406 C 58.304688 200.566406 57.042969 199.628906 55.824219 198.632812 C 54.609375 197.632812 53.445312 196.578125 52.332031 195.464844 C 51.222656 194.355469 50.164062 193.191406 49.167969 191.972656 C 48.167969 190.757812 47.234375 189.496094 46.359375 188.1875 C 45.484375 186.878906 44.675781 185.53125 43.9375 184.144531 C 43.195312 182.757812 42.523438 181.335938 41.921875 179.882812 C 41.320312 178.429688 40.789062 176.949219 40.332031 175.445312 C 39.875 173.9375 39.492188 172.414062 39.1875 170.871094 C 38.878906 169.328125 38.648438 167.773438 38.496094 166.210938 C 38.339844 164.644531 38.265625 163.074219 38.265625 161.5 C 38.265625 159.929688 38.339844 158.359375 38.496094 156.792969 C 38.648438 155.226562 38.878906 153.671875 39.1875 152.128906 C 39.492188 150.585938 39.875 149.0625 40.332031 147.558594 C 40.789062 146.050781 41.320312 144.574219 41.921875 143.121094 C 42.523438 141.664062 43.195312 140.246094 43.9375 138.859375 C 44.675781 137.46875 45.484375 136.121094 46.359375 134.816406 C 47.234375 133.507812 48.167969 132.246094 49.167969 131.027344 C 50.164062 129.8125 51.222656 128.648438 52.332031 127.535156 C 53.445312 126.421875 54.609375 125.367188 55.824219 124.371094 C 57.042969 123.371094 58.304688 122.4375 59.613281 121.5625 C 60.921875 120.6875 62.269531 119.878906 63.65625 119.136719 C 65.042969 118.398438 66.464844 117.726562 67.917969 117.125 C 69.371094 116.519531 70.847656 115.992188 72.355469 115.535156 C 73.859375 115.078125 75.382812 114.695312 76.925781 114.390625 C 78.46875 114.082031 80.023438 113.851562 81.589844 113.699219 C 83.15625 113.542969 84.726562 113.464844 86.296875 113.464844 L 135.242188 113.464844 C 139.054688 113.464844 142.816406 113.910156 146.527344 114.804688 C 147.148438 114.957031 147.777344 115.117188 148.390625 115.292969 L 149.1875 115.523438 L 150.398438 115.914062 L 151.195312 116.191406 C 162.632812 120.011719 172.109375 128.632812 177.761719 139.175781 C 178.351562 140.285156 178.890625 141.410156 179.355469 142.566406 C 180.492188 145.210938 181.378906 147.933594 182.015625 150.742188 C 182.105469 151.109375 182.183594 151.460938 182.253906 151.816406 C 182.328125 152.175781 182.382812 152.480469 182.445312 152.804688 C 182.527344 153.269531 182.605469 153.722656 182.679688 154.183594 C 182.75 154.648438 182.78125 154.878906 182.828125 155.230469 C 182.917969 155.929688 182.996094 156.632812 183.042969 157.324219 C 183.085938 157.636719 183.101562 157.945312 183.117188 158.242188 C 183.132812 158.535156 183.164062 158.863281 183.179688 159.15625 C 183.195312 159.453125 183.179688 159.890625 183.179688 160.257812 C 183.179688 160.625 183.277344 161.109375 183.277344 161.523438 Z M 183.277344 161.523438 " fill-opacity="1" fill-rule="nonzero"/><g clip-path="url(#abab69b9ab)"><path fill="#ffb84d" d="M 365.132812 271.324219 C 365.132812 272.898438 365.054688 274.46875 364.902344 276.035156 C 364.746094 277.601562 364.515625 279.15625 364.207031 280.699219 C 363.902344 282.242188 363.519531 283.765625 363.0625 285.269531 C 362.605469 286.777344 362.078125 288.257812 361.476562 289.710938 C 360.871094 291.164062 360.199219 292.582031 359.457031 293.972656 C 358.71875 295.359375 357.910156 296.707031 357.035156 298.015625 C 356.160156 299.324219 355.222656 300.585938 354.226562 301.800781 C 353.226562 303.015625 352.171875 304.179688 351.058594 305.292969 C 349.949219 306.40625 348.78125 307.460938 347.566406 308.460938 C 346.351562 309.457031 345.089844 310.394531 343.78125 311.265625 C 342.472656 312.140625 341.125 312.949219 339.734375 313.691406 C 338.347656 314.433594 336.925781 315.105469 335.472656 315.707031 C 334.019531 316.308594 332.539062 316.835938 331.035156 317.292969 C 329.53125 317.75 328.003906 318.132812 326.460938 318.4375 C 324.917969 318.746094 323.363281 318.976562 321.796875 319.128906 C 320.234375 319.285156 318.664062 319.359375 317.089844 319.359375 L 242.171875 319.359375 C 240.945312 319.359375 239.714844 319.40625 238.488281 319.5 C 237.265625 319.59375 236.042969 319.734375 234.828125 319.921875 C 233.613281 320.113281 232.40625 320.347656 231.210938 320.625 C 230.011719 320.90625 228.828125 321.234375 227.65625 321.605469 C 226.484375 321.976562 225.328125 322.390625 224.1875 322.851562 C 223.046875 323.3125 221.925781 323.8125 220.824219 324.359375 C 219.722656 324.90625 218.644531 325.492188 217.585938 326.121094 C 216.53125 326.753906 215.5 327.421875 214.496094 328.128906 C 213.488281 328.835938 212.511719 329.582031 211.566406 330.367188 C 210.617188 331.148438 209.699219 331.96875 208.816406 332.820312 C 207.929688 333.671875 207.078125 334.558594 206.261719 335.480469 C 205.445312 336.398438 204.664062 337.347656 203.921875 338.324219 C 203.175781 339.304688 202.46875 340.308594 201.804688 341.34375 C 201.136719 342.375 200.507812 343.433594 199.921875 344.511719 C 199.335938 345.59375 198.792969 346.695312 198.292969 347.820312 C 197.792969 348.941406 197.332031 350.082031 196.921875 351.238281 C 196.6875 351.878906 196.480469 352.515625 196.273438 353.160156 C 196.046875 353.402344 195.769531 353.519531 195.4375 353.511719 C 195.171875 353.511719 194.9375 353.433594 194.726562 353.273438 C 194.515625 353.113281 194.375 352.90625 194.304688 352.648438 C 194.289062 352.59375 194.273438 352.539062 194.265625 352.484375 C 194.265625 352.308594 194.1875 352.125 194.136719 351.957031 L 194.136719 271.324219 C 194.140625 269.753906 194.214844 268.183594 194.371094 266.617188 C 194.523438 265.050781 194.753906 263.496094 195.0625 261.953125 C 195.367188 260.410156 195.75 258.886719 196.207031 257.382812 C 196.664062 255.875 197.191406 254.398438 197.796875 252.945312 C 198.398438 251.492188 199.070312 250.070312 199.808594 248.683594 C 200.550781 247.296875 201.359375 245.949219 202.234375 244.640625 C 203.109375 243.332031 204.042969 242.070312 205.042969 240.851562 C 206.039062 239.636719 207.09375 238.472656 208.207031 237.359375 C 209.320312 236.246094 210.484375 235.191406 211.699219 234.195312 C 212.917969 233.195312 214.179688 232.261719 215.488281 231.386719 C 216.792969 230.511719 218.140625 229.703125 219.53125 228.964844 C 220.917969 228.222656 222.335938 227.550781 223.792969 226.949219 C 225.246094 226.347656 226.722656 225.816406 228.230469 225.359375 C 229.734375 224.902344 231.257812 224.519531 232.800781 224.214844 C 234.34375 223.90625 235.898438 223.675781 237.464844 223.523438 C 239.03125 223.367188 240.601562 223.292969 242.171875 223.292969 L 317.089844 223.292969 C 318.664062 223.289062 320.234375 223.367188 321.796875 223.519531 C 323.363281 223.675781 324.917969 223.90625 326.460938 224.210938 C 328.003906 224.519531 329.53125 224.898438 331.035156 225.355469 C 332.542969 225.8125 334.019531 226.339844 335.476562 226.941406 C 336.929688 227.546875 338.351562 228.214844 339.738281 228.957031 C 341.125 229.699219 342.472656 230.507812 343.78125 231.382812 C 345.089844 232.253906 346.351562 233.191406 347.570312 234.1875 C 348.785156 235.1875 349.949219 236.242188 351.0625 237.355469 C 352.175781 238.46875 353.230469 239.632812 354.230469 240.847656 C 355.226562 242.0625 356.164062 243.328125 357.039062 244.636719 C 357.910156 245.941406 358.71875 247.289062 359.460938 248.679688 C 360.203125 250.066406 360.875 251.488281 361.476562 252.941406 C 362.078125 254.394531 362.609375 255.875 363.066406 257.378906 C 363.519531 258.886719 363.902344 260.410156 364.210938 261.953125 C 364.515625 263.496094 364.746094 265.050781 364.902344 266.617188 C 365.054688 268.183594 365.132812 269.753906 365.132812 271.324219 Z M 365.132812 271.324219 " fill-opacity="1" fill-rule="nonzero"/></g></svg>