<svg xmlns="http://www.w3.org/2000/svg" xmlns:xlink="http://www.w3.org/1999/xlink" width="500" zoomAndPan="magnify" viewBox="0 0 375 374.999991" height="500" preserveAspectRatio="xMidYMid meet" version="1.0"><rect x="-37.5" width="450" fill="#ffffff" y="-37.499999" height="449.999989" fill-opacity="1"/><rect x="-37.5" width="450" fill="#ffffff" y="-37.499999" height="449.999989" fill-opacity="1"/><path fill="#ffd54f" d="M 179.675781 375 L 179.675781 278.265625 C 135.667969 274.507812 100.484375 239.324219 96.726562 195.316406 L 0 195.316406 C 4.011719 292.589844 82.410156 370.996094 179.675781 375 Z M 179.675781 375 " fill-opacity="1" fill-rule="nonzero"/><path fill="#ff4d4d" d="M 179.675781 96.734375 L 179.675781 0 C 82.410156 4.003906 4.011719 82.410156 0 179.675781 L 96.726562 179.675781 C 100.484375 135.675781 135.667969 100.492188 179.675781 96.734375 Z M 179.675781 96.734375 " fill-opacity="1" fill-rule="nonzero"/><path fill="#4db8ff" d="M 195.316406 278.265625 L 195.316406 375 C 292.582031 370.996094 370.988281 292.589844 375 195.324219 L 278.265625 195.324219 C 274.507812 239.324219 239.324219 274.507812 195.316406 278.265625 Z M 195.316406 278.265625 " fill-opacity="1" fill-rule="nonzero"/><path fill="#66e066" d="M 195.316406 0 L 195.316406 96.734375 C 239.324219 100.492188 274.507812 135.675781 278.265625 179.683594 L 375 179.683594 C 370.988281 82.410156 292.582031 4.003906 195.316406 0 Z M 195.316406 0 " fill-opacity="1" fill-rule="nonzero"/><path fill="#ffd54f" d="M 179.675781 262.558594 L 179.675781 236.78125 C 158.414062 233.421875 141.578125 216.585938 138.21875 195.324219 L 112.441406 195.324219 C 116.09375 230.699219 144.300781 258.898438 179.675781 262.558594 Z M 179.675781 262.558594 " fill-opacity="1" fill-rule="nonzero"/><path fill="#ff4d4d" d="M 179.675781 138.21875 L 179.675781 112.441406 C 144.300781 116.101562 116.09375 144.300781 112.441406 179.675781 L 138.21875 179.675781 C 141.578125 158.414062 158.414062 141.578125 179.675781 138.21875 Z M 179.675781 138.21875 " fill-opacity="1" fill-rule="nonzero"/><path fill="#4db8ff" d="M 236.789062 195.324219 C 233.429688 216.585938 216.585938 233.421875 195.316406 236.78125 L 195.316406 262.558594 C 230.699219 258.898438 258.898438 230.699219 262.550781 195.324219 Z M 236.789062 195.324219 " fill-opacity="1" fill-rule="nonzero"/><path fill="#66e066" d="M 195.316406 112.441406 L 195.316406 138.21875 C 216.578125 141.578125 233.421875 158.414062 236.789062 179.675781 L 262.558594 179.675781 C 258.898438 144.300781 230.699219 116.101562 195.316406 112.441406 Z M 195.316406 112.441406 " fill-opacity="1" fill-rule="nonzero"/></svg>