<?xml version="1.0" encoding="UTF-8"?>
<!DOCTYPE svg PUBLIC "-//W3C//DTD SVG 1.1//EN" "http://www.w3.org/Graphics/SVG/1.1/DTD/svg11.dtd">
<svg xmlns="http://www.w3.org/2000/svg" version="1.1" width="1000px" height="1080px" style="shape-rendering:geometricPrecision; text-rendering:geometricPrecision; image-rendering:optimizeQuality; fill-rule:evenodd; clip-rule:evenodd" xmlns:xlink="http://www.w3.org/1999/xlink">
<g><path style="opacity:0.993" fill="#66e065" d="M 476.5,14.5 C 563.835,12.418 646.168,31.5846 723.5,72C 732.501,76.8318 741.168,82.1651 749.5,88C 687.96,180.91 626.794,274.077 566,367.5C 562.732,372.384 559.232,377.051 555.5,381.5C 513.127,359.928 470.96,360.262 429,382.5C 428.586,382.043 428.086,381.709 427.5,381.5C 361.11,285.775 295.11,189.775 229.5,93.5C 257.083,74.3717 286.75,58.8717 318.5,47C 369.606,27.8765 422.273,17.0432 476.5,14.5 Z"/></g>
<g><path style="opacity:0.993" fill="#feb84c" d="M 766.5,98.5 C 866.577,167.816 932.744,261.483 965,379.5C 974.245,415.204 979.078,451.371 979.5,488C 887.367,488.114 794.534,487.614 701,486.5C 694.734,486.364 688.067,486.697 681,487.5C 662.907,486.674 644.74,486.174 626.5,486C 621.352,448.518 604.185,418.018 575,394.5C 574.48,392.711 574.813,391.044 576,389.5C 639.723,292.617 703.223,195.617 766.5,98.5 Z"/></g>
<g><path style="opacity:0.993" fill="#4db8fe" d="M 209.5,105.5 C 210.675,105.281 211.675,105.614 212.5,106.5C 278.247,201.66 343.747,296.993 409,392.5C 409.667,393.5 409.667,394.5 409,395.5C 380.505,419.147 364.005,449.48 359.5,486.5C 275.483,486.891 190.983,487.558 106,488.5C 74.1611,488.598 41.1611,488.265 7,487.5C 12.9372,351.821 64.7705,237.321 162.5,144C 177.502,130.191 193.168,117.358 209.5,105.5 Z"/></g>
<g><path style="opacity:0.993" fill="#d94daf" d="M 390.5,630.5 C 389.094,630.973 388.427,631.973 388.5,633.5C 330.065,722.051 270.898,810.051 211,897.5C 115.542,828.962 52.542,737.628 22,623.5C 12.5099,586.404 7.50991,548.738 7,510.5C 33,509.833 59,509.167 85,508.5C 88.6667,508.833 92.3333,509.167 96,509.5C 184.945,508.399 272.445,507.899 358.5,508C 362.782,546.567 379.448,578.567 408.5,604C 403.043,613.274 397.043,622.108 390.5,630.5 Z"/></g>
<g><path style="opacity:0.994" fill="#fe4d4c" d="M 660.5,507.5 C 661.952,508.302 663.618,508.802 665.5,509C 675.161,509.5 684.828,509.666 694.5,509.5C 741.003,509.832 787.336,509.499 833.5,508.5C 881.434,509.097 930.101,509.597 979.5,510C 976.563,632.651 934.396,739.485 853,830.5C 830.064,855.118 805.064,877.118 778,896.5C 711.302,799.459 644.969,702.126 579,604.5C 578.333,603.5 578.333,602.5 579,601.5C 607.797,576.908 623.63,545.574 626.5,507.5C 637.833,507.5 649.167,507.5 660.5,507.5 Z"/></g>
<g><path style="opacity:1" fill="#ff9a4d" d="M 660.5,507.5 C 672.777,507.381 684.111,507.714 694.5,508.5C 694.5,508.833 694.5,509.167 694.5,509.5C 684.828,509.666 675.161,509.5 665.5,509C 663.618,508.802 661.952,508.302 660.5,507.5 Z"/></g>
<g><path style="opacity:0.618" fill="#ff6c4d" d="M 833.5,508.5 C 787.336,509.499 741.003,509.832 694.5,509.5C 694.5,509.167 694.5,508.833 694.5,508.5C 740.262,508.428 786.596,508.428 833.5,508.5 Z"/></g>
<g><path style="opacity:0.993" fill="#a54dff" d="M 426.5,615.5 C 470.34,639.291 514.34,639.458 558.5,616C 559.944,615.219 561.277,615.386 562.5,616.5C 627.753,713.34 693.253,810.006 759,906.5C 759.667,907.5 759.667,908.5 759,909.5C 657.973,973.96 547.807,998.794 428.5,984C 357.453,974.292 291.786,950.292 231.5,912C 229.032,910.412 228.866,908.578 231,906.5C 295.997,809.346 361.163,712.346 426.5,615.5 Z"/></g>
<g><path style="opacity:0.259" fill="#ad4cf2" d="M 390.5,630.5 C 390.573,632.027 389.906,633.027 388.5,633.5C 388.427,631.973 389.094,630.973 390.5,630.5 Z"/></g>
</svg>
