<?xml version="1.0" encoding="UTF-8"?>
<!DOCTYPE svg PUBLIC "-//W3C//DTD SVG 1.1//EN" "http://www.w3.org/Graphics/SVG/1.1/DTD/svg11.dtd">
<svg xmlns="http://www.w3.org/2000/svg" version="1.1" width="600px" height="1080px" style="shape-rendering:geometricPrecision; text-rendering:geometricPrecision; image-rendering:optimizeQuality; fill-rule:evenodd; clip-rule:evenodd" xmlns:xlink="http://www.w3.org/1999/xlink">
<g><path style="opacity:0.984" fill="#4db8fe" d="M 14.5,75.5 C 127.989,79.809 227.155,119.142 312,193.5C 312.167,194.167 312.333,194.833 312.5,195.5C 299.516,209.651 286.35,223.651 273,237.5C 246.098,263.613 219.431,289.947 193,316.5C 176.376,334.626 159.21,352.126 141.5,369C 140.167,369.667 138.833,369.667 137.5,369C 101.788,340.303 60.9546,323.47 15,318.5C 14.5,237.501 14.3333,156.501 14.5,75.5 Z"/></g>
<g><path style="opacity:0.982" fill="#66e065" d="M 335.5,217.5 C 336.239,217.369 336.906,217.536 337.5,218C 374.371,256.411 404.038,299.744 426.5,348C 436.642,372.434 445.476,397.267 453,422.5C 456.979,438.377 460.312,454.377 463,470.5C 464.753,484.79 465.92,499.123 466.5,513.5C 382.823,515.463 298.823,516.796 214.5,517.5C 210.092,471.377 193.092,430.71 163.5,395.5C 162.167,393.833 162.167,392.167 163.5,390.5C 221.313,333.021 278.647,275.354 335.5,217.5 Z"/></g>
<g><path style="opacity:0.924" fill="#4db8ff" d="M 14.5,330.5 C 56.6593,333.97 94.326,348.637 127.5,374.5C 130.634,376.721 131.134,379.387 129,382.5C 122.707,388.788 116.207,394.788 109.5,400.5C 103.527,397.176 97.8602,393.342 92.5,389C 83.5677,383.737 74.401,378.904 65,374.5C 55.0673,370.522 44.9006,367.355 34.5,365C 27.8902,363.674 21.2236,362.84 14.5,362.5C 14.5,351.833 14.5,341.167 14.5,330.5 Z"/></g>
<g><path style="opacity:0.946" fill="#4db8ff" d="M 14.5,373.5 C 31.1786,375.139 47.3453,379.139 63,385.5C 70.3989,388.782 77.5656,392.449 84.5,396.5C 89.3385,400.162 94.3385,403.662 99.5,407C 100.059,407.725 100.392,408.558 100.5,409.5C 87.0732,424.429 73.0732,438.929 58.5,453C 57.1667,453.667 55.8333,453.667 54.5,453C 42.5834,445.427 29.5834,440.427 15.5,438C 14.5064,416.575 14.1731,395.075 14.5,373.5 Z"/></g>
<g><path style="opacity:0.917" fill="#66e065" d="M 152.5,401.5 C 153.675,401.281 154.675,401.614 155.5,402.5C 183.443,435.191 199.443,473.525 203.5,517.5C 193.106,517.778 182.773,517.778 172.5,517.5C 170.431,506.028 167.764,494.694 164.5,483.5C 162.388,477.858 160.055,472.358 157.5,467C 157.833,466.667 158.167,466.333 158.5,466C 150.477,451.456 141.81,437.289 132.5,423.5C 138.732,415.926 145.399,408.593 152.5,401.5 Z"/></g>
<g><path style="opacity:0.941" fill="#66e065" d="M 122.5,432.5 C 125.056,433.543 127.223,435.21 129,437.5C 146.633,461.54 157.133,488.54 160.5,518.5C 140.461,518.651 120.461,518.651 100.5,518.5C 96.2694,503.039 89.6028,488.705 80.5,475.5C 94.6033,461.066 108.603,446.732 122.5,432.5 Z"/></g>
<g><path style="opacity:0.983" fill="#feb74c" d="M 429.5,544.5 C 442.08,544.178 454.58,544.511 467,545.5C 465.694,645.744 436.028,735.744 378,815.5C 368.349,828.148 358.349,840.481 348,852.5C 344.493,855.545 340.993,858.545 337.5,861.5C 277.773,802.441 219.106,742.441 161.5,681.5C 193.355,643.291 211.355,599.291 215.5,549.5C 287.247,548.174 358.58,546.507 429.5,544.5 Z"/></g>
<g><path style="opacity:0.918" fill="#feb84c" d="M 197.5,548.5 C 199.527,548.338 201.527,548.505 203.5,549C 203.821,559.148 202.988,569.315 201,579.5C 198.451,590.686 195.118,601.686 191,612.5C 187.228,620.506 183.728,628.173 180.5,635.5C 177.023,641.79 173.023,647.623 168.5,653C 168.833,653.333 169.167,653.667 169.5,654C 163.958,660.204 158.458,666.371 153,672.5C 145.082,665.75 137.582,658.417 130.5,650.5C 155.283,621.856 168.95,588.189 171.5,549.5C 180.349,549.826 189.016,549.493 197.5,548.5 Z"/></g>
<g><path style="opacity:0.938" fill="#feb84c" d="M 121.5,549.5 C 134.325,549.401 147.325,549.568 160.5,550C 161.022,550.561 161.355,551.228 161.5,552C 157.639,584.006 146.139,612.839 127,638.5C 125.01,641.722 122.51,642.222 119.5,640C 106.848,626.681 94.1818,613.348 81.5,600C 92.3562,585.28 99.0229,568.78 101.5,550.5C 108.354,550.824 115.021,550.491 121.5,549.5 Z"/></g>
<g><path style="opacity:0.941" fill="#fe4d4c" d="M 56.5,622.5 C 59.1398,622.954 61.4732,624.121 63.5,626C 75.2706,638.938 87.604,651.438 100.5,663.5C 100.167,664.167 99.8333,664.833 99.5,665.5C 74.5894,685.034 46.2561,696.367 14.5,699.5C 14.3334,679.497 14.5,659.497 15,639.5C 26.1122,636.842 36.9456,633.175 47.5,628.5C 50.5744,626.493 53.5744,624.493 56.5,622.5 Z"/></g>
<g><path style="opacity:0.924" fill="#fe4d4c" d="M 105.5,673.5 C 107.262,673.357 108.929,673.691 110.5,674.5C 115.806,680.473 121.473,686.14 127.5,691.5C 129.533,693.452 129.866,695.618 128.5,698C 111.99,710.675 94.1564,721.175 75,729.5C 63.612,733.56 52.112,737.06 40.5,740C 31.9051,741.633 23.2384,742.466 14.5,742.5C 14.1801,731.918 14.5134,721.418 15.5,711C 32.9992,708.436 49.9992,704.103 66.5,698C 75.8277,693.01 85.161,688.01 94.5,683C 98.6523,680.278 102.319,677.112 105.5,673.5 Z"/></g>
<g><path style="opacity:0.986" fill="#ff4d4d" d="M 206.5,773.5 C 206.088,775.973 207.088,777.306 209.5,777.5C 220.167,791.5 232.5,803.833 246.5,814.5C 268.73,837.065 291.064,859.732 313.5,882.5C 314.833,883.833 314.833,885.167 313.5,886.5C 228.453,961.433 128.786,1000.77 14.5,1004.5C 14.3333,921.166 14.5,837.833 15,754.5C 48.2512,751.116 79.4179,741.283 108.5,725C 117.559,719.144 126.226,712.81 134.5,706C 137.835,703.709 140.668,704.209 143,707.5C 163.755,730.078 184.922,752.078 206.5,773.5 Z"/></g>
<g><path style="opacity:0.459" fill="#ff884d" d="M 206.5,773.5 C 208.262,774.262 209.262,775.596 209.5,777.5C 207.088,777.306 206.088,775.973 206.5,773.5 Z"/></g>
<g><path style="opacity:0.366" fill="#ffae4d" d="M 209.5,777.5 C 210.473,777.987 211.473,778.487 212.5,779C 224.319,790.32 235.652,802.153 246.5,814.5C 232.5,803.833 220.167,791.5 209.5,777.5 Z"/></g>
</svg>
