<svg width="50" height="50" version="1.1" xmlns="http://www.w3.org/2000/svg" desc="Created with imagetracer.js version 1.2.6" ><path fill="rgb(0,0,0)" stroke="rgb(0,0,0)" stroke-width="1" opacity="0" d="M 0 0 L 50 0 L 50 50 L 0 50 L 0 0 Z M 16 2 L 12 6 Q 10 14 15 16 L 15 8 Q 16 4 22 5 L 24 8 L 25 16 Q 29 14 27 6 Q 25 0 16 2 Z M 17 7 L 17 33 L 11 27 L 7 27 Q 4 28 5 33 L 22 48 L 38 48 L 40 47 L 43 44 L 43 22 Q 36 20 38 27 L 36 27 L 36 20 Q 29 18 31 25 L 29 25 L 29 19 L 24 19 L 24 25 L 22 25 L 22 7 L 17 7 Z " /><path fill="rgb(255,255,255)" stroke="rgb(255,255,255)" stroke-width="1" opacity="0.5019607843137255" d="M 15.5 2 L 18 2.5 L 13 5.5 L 12.5 8 L 12 5.5 L 15.5 2 Z " /><path fill="rgb(255,255,255)" stroke="rgb(255,255,255)" stroke-width="1" opacity="0.5019607843137255" d="M 21.5 2 Q 26.5 1.5 27 5.5 L 26.5 8 L 23.5 3 Q 20.5 3.5 21.5 2 Z " /><path fill="rgb(255,255,255)" stroke="rgb(255,255,255)" stroke-width="1" opacity="0.5019607843137255" d="M 17.5 4 L 24 5 L 25 11.5 L 24 11.5 Q 25 6 21.5 5 Q 16 4 15 7.5 L 14.5 12 L 14 7.5 L 15 5 L 17.5 4 Z " /><path fill="rgb(255,255,255)" stroke="rgb(255,255,255)" stroke-width="1" opacity="0.5019607843137255" d="M 20.5 7 Q 22.8 6.3 22 8.5 L 20.5 7 Z " /><path fill="rgb(255,255,255)" stroke="rgb(255,255,255)" stroke-width="1" opacity="0.5019607843137255" d="M 12.5 11 L 15 15.5 L 12 13.5 L 12.5 11 Z " /><path fill="rgb(255,255,255)" stroke="rgb(255,255,255)" stroke-width="1" opacity="0.5019607843137255" d="M 26.5 11 L 27 13.5 L 24 15.5 L 26.5 11 Z " /><path fill="rgb(255,255,255)" stroke="rgb(255,255,255)" stroke-width="1" opacity="0.5019607843137255" d="M 24 19 L 26 19.5 L 24 20.5 L 24 19 Z " /><path fill="rgb(255,255,255)" stroke="rgb(255,255,255)" stroke-width="1" opacity="0.5019607843137255" d="M 27.5 19 Q 29.8 18.3 29 20.5 L 27.5 19 Z " /><path fill="rgb(255,255,255)" stroke="rgb(255,255,255)" stroke-width="1" opacity="0.5019607843137255" d="M 6.5 27 L 5.5 29 L 6.5 27 Z " /><path fill="rgb(255,255,255)" stroke="rgb(255,255,255)" stroke-width="1" opacity="0.5019607843137255" d="M 10.5 27 L 16.5 34 L 10.5 27 Z " /><path fill="rgb(255,255,255)" stroke="rgb(255,255,255)" stroke-width="1" opacity="0.5019607843137255" d="M 5.5 32 L 19.5 46 L 24 47.5 L 21.5 48 L 5.5 32 Z " /><path fill="rgb(255,255,255)" stroke="rgb(255,255,255)" stroke-width="1" opacity="0.5019607843137255" d="M 42.5 41 L 43 43.5 L 39 46.5 L 42.5 41 Z " /><path fill="rgb(255,255,255)" stroke="rgb(255,255,255)" stroke-width="1" opacity="0.996078431372549" d="M 18.5 2 L 21 2.5 L 18.5 3 L 18.5 2 Z " /><path fill="rgb(255,255,255)" stroke="rgb(255,255,255)" stroke-width="1" opacity="0.996078431372549" d="M 15.5 3 L 16.5 5 Q 15.3 2.8 14 5.5 L 14.5 7 Q 11 5 15.5 3 Z " /><path fill="rgb(255,255,255)" stroke="rgb(255,255,255)" stroke-width="1" opacity="0.996078431372549" d="M 23.5 3 Q 28 5 24.5 7 L 23.5 4 L 22 4.5 L 23.5 3 Z " /><path fill="rgb(255,255,255)" stroke="rgb(255,255,255)" stroke-width="1" opacity="0.996078431372549" d="M 12.5 8 L 13 10.5 L 12 10.5 L 12.5 8 Z " /><path fill="rgb(255,255,255)" stroke="rgb(255,255,255)" stroke-width="1" opacity="0.996078431372549" d="M 26.5 8 L 27 10.5 L 26 10.5 L 26.5 8 Z " /><path fill="rgb(255,255,255)" stroke="rgb(255,255,255)" stroke-width="1" opacity="0.996078431372549" d="M 14.5 12 L 14.5 15 Q 11.5 13.5 14.5 12 Z " /><path fill="rgb(255,255,255)" stroke="rgb(255,255,255)" stroke-width="1" opacity="0.996078431372549" d="M 24.5 12 Q 27.5 13.5 24.5 15 L 24.5 12 Z " /><path fill="rgb(255,255,255)" stroke="rgb(255,255,255)" stroke-width="1" opacity="0.996078431372549" d="M 33.5 20 L 36 21.5 L 35.5 23 L 35 21 L 33.5 20 Z " /><path fill="rgb(255,255,255)" stroke="rgb(255,255,255)" stroke-width="1" opacity="0.996078431372549" d="M 28.5 21 L 29 25.5 L 28 25.5 L 28.5 21 Z " /><path fill="rgb(255,255,255)" stroke="rgb(255,255,255)" stroke-width="1" opacity="0.996078431372549" d="M 39.5 22 L 43 23.5 L 42.5 25 L 42 23 Q 38.7 23.7 39.5 22 Z " /><path fill="rgb(255,255,255)" stroke="rgb(255,255,255)" stroke-width="1" opacity="0.996078431372549" d="M 38.5 24 L 39 27.5 L 38 27.5 L 38.5 24 Z " /><path fill="rgb(255,255,255)" stroke="rgb(255,255,255)" stroke-width="1" opacity="0.996078431372549" d="M 7.5 27 L 10 27.5 L 6 29.5 L 7 32.5 L 5 31.5 Q 4.5 27.5 7.5 27 Z " /><path fill="rgb(255,255,255)" stroke="rgb(255,255,255)" stroke-width="1" opacity="0.996078431372549" d="M 41.5 43 L 38.5 47 L 41.5 43 Z " /><path fill="rgb(255,255,255)" stroke="rgb(255,255,255)" stroke-width="1" opacity="0.996078431372549" d="M 18.5 44 L 19.5 46 L 18.5 44 Z " /><path fill="rgb(255,255,255)" stroke="rgb(255,255,255)" stroke-width="1" opacity="1" d="M 16.5 3 Q 24.5 1.5 26 6.5 Q 27.5 12.5 24.5 14 L 25 12.5 Q 26.5 5.5 22.5 4 Q 15.5 2.5 14 6.5 Q 12.5 12 15 13.5 L 13 12.5 Q 11.5 4.5 16.5 3 Z " /><path fill="rgb(255,255,255)" stroke="rgb(255,255,255)" stroke-width="1" opacity="1" d="M 18 8 Q 21.8 6.5 21 9.5 L 22 10.5 L 22 26 Q 25.3 27.3 24 22.5 L 25 20 L 28 20 L 28 26 L 31 26 L 32 21 Q 35.8 19.5 35 22.5 L 36 28 L 39 28 L 39 23 L 42 23 L 43 25.5 L 43 38.5 L 42 42.5 L 37.5 47 L 26.5 48 Q 13.5 44 7 33.5 L 6 29.5 Q 6.8 27.3 10.5 28 L 17 33.5 L 17 10.5 L 18 8 Z " /></svg>