<?xml version="1.0" encoding="UTF-8"?>
<svg id="Capa_1" data-name="Capa 1" xmlns="http://www.w3.org/2000/svg" viewBox="0 0 170.08 170.08">
  <defs>
    <style>
      .cls-1 {
        fill: #010101;
      }
    </style>
  </defs>
  <path class="cls-1" d="M120.47,99.21c0,3.91-3.17,7.09-7.09,7.09h-56.69c-3.91,0-7.09-3.17-7.09-7.09s3.17-7.09,7.09-7.09h56.69c3.91,0,7.09,3.17,7.09,7.09ZM92.13,120.47h-35.43c-3.91,0-7.09,3.17-7.09,7.09s3.17,7.09,7.09,7.09h35.43c3.91,0,7.09-3.17,7.09-7.09s-3.17-7.09-7.09-7.09ZM155.91,74.3v60.34c-.02,19.56-15.87,35.41-35.43,35.43H49.61c-19.56-.02-35.41-15.87-35.43-35.43V35.43C14.2,15.87,30.05.02,49.61,0h32c13.16-.03,25.79,5.2,35.08,14.53l24.69,24.7c9.34,9.28,14.57,21.91,14.53,35.07ZM106.66,24.55c-2.23-2.16-4.73-4.02-7.45-5.53v30.59c0,3.91,3.17,7.09,7.09,7.09h30.59c-1.51-2.71-3.37-5.21-5.53-7.44l-24.69-24.7ZM141.73,74.3c0-1.17-.23-2.29-.33-3.44h-35.1c-11.74,0-21.26-9.52-21.26-21.26V14.51c-1.15-.11-2.27-.33-3.44-.33h-32c-11.74,0-21.26,9.52-21.26,21.26v99.21c0,11.74,9.52,21.26,21.26,21.26h70.87c11.74,0,21.26-9.52,21.26-21.26v-60.34Z"/>
</svg>