<svg xmlns="http://www.w3.org/2000/svg" xmlns:xlink="http://www.w3.org/1999/xlink" width="1080" zoomAndPan="magnify" viewBox="0 0 810 809.999993" height="1080" preserveAspectRatio="xMidYMid meet" version="1.0"><defs><clipPath id="762b0b0256"><path d="M 315.253906 213.878906 L 809.65625 213.878906 L 809.65625 807.128906 L 315.253906 807.128906 Z M 315.253906 213.878906 " clip-rule="nonzero"/></clipPath><clipPath id="27bf4b1d09"><path d="M 315.253906 213.878906 L 809.65625 213.878906 L 809.65625 807.128906 L 315.253906 807.128906 Z M 315.253906 213.878906 " clip-rule="nonzero"/></clipPath><clipPath id="1c129e9fa7"><path d="M 0.382812 213.878906 L 471 213.878906 L 471 795.117188 L 0.382812 795.117188 Z M 0.382812 213.878906 " clip-rule="nonzero"/></clipPath><clipPath id="fff859450c"><path d="M 116.636719 351.058594 L 360 351.058594 L 360 795.117188 L 116.636719 795.117188 Z M 116.636719 351.058594 " clip-rule="nonzero"/></clipPath><clipPath id="a234b757b7"><path d="M 13.171875 213.878906 L 471 213.878906 L 471 774.226562 L 13.171875 774.226562 Z M 13.171875 213.878906 " clip-rule="nonzero"/></clipPath><clipPath id="6f2ab14d5b"><path d="M 0.382812 232 L 457 232 L 457 795.117188 L 0.382812 795.117188 Z M 0.382812 232 " clip-rule="nonzero"/></clipPath></defs><g clip-path="url(#762b0b0256)"><path fill="#f9c19c" d="M 804.71875 638.085938 C 796.484375 675.527344 761.574219 702.066406 734.515625 717.472656 C 734.515625 717.472656 687.53125 795.203125 569.800781 805.925781 C 540.5625 808.59375 515.242188 806.855469 493.703125 802.742188 C 496.113281 803.265625 498.609375 803.710938 501.207031 804.054688 C 501.207031 804.054688 436.527344 800.722656 397.144531 756.777344 C 397.144531 756.777344 427.105469 719.242188 432.976562 700.183594 C 432.976562 700.183594 432.886719 701.25 432.804688 703.144531 C 437.050781 693.332031 440.949219 682.164062 443.976562 669.636719 C 444.699219 666.640625 445.3125 663.59375 445.828125 660.519531 C 439.617188 669.761719 433.882812 674.132812 433.882812 674.132812 C 429.105469 674.851562 424.519531 675.359375 420.085938 675.675781 C 420.089844 675.683594 420.089844 675.683594 420.089844 675.683594 C 420.089844 675.683594 413.894531 676.664062 405.277344 676.105469 C 405.277344 676.105469 405.269531 676.085938 405.253906 676.054688 C 336.726562 674.265625 315.816406 622.097656 315.257812 590.765625 C 314.625 555.429688 370.78125 470.25 420.628906 445.640625 C 433.957031 439.0625 447.210938 433.699219 459.488281 429.375 C 462.46875 422.792969 470.25 414.746094 470.25 414.746094 C 470.25 414.746094 464.871094 416.238281 453.214844 412.058594 C 441.566406 407.871094 460.09375 390.25 460.09375 390.25 C 460.09375 390.25 451.425781 395.324219 447.246094 384.867188 C 445.191406 379.738281 448.96875 375.886719 453.34375 373.296875 C 455.898438 371.78125 458.65625 370.699219 460.585938 370.039062 C 458.484375 370.109375 455.054688 369.136719 450.230469 364.394531 C 441.566406 355.871094 467.5625 344.105469 467.5625 344.105469 C 461.285156 342.191406 467.859375 331.082031 477.421875 326.183594 C 480.132812 324.792969 483.089844 323.628906 485.925781 322.675781 C 483.613281 320.347656 481.296875 317.007812 481.605469 313.152344 C 482.027344 307.859375 492.410156 304.109375 498.421875 302.375 C 498.0625 301.359375 497.730469 300.328125 497.421875 299.285156 C 493.070312 297.898438 468.769531 290.105469 454.527344 284.160156 C 452.21875 288.894531 449.125 297.402344 445.597656 312.5625 C 449.769531 314.625 448.140625 321.453125 448.140625 321.453125 L 442.6875 365.621094 L 423.785156 361.6875 C 423.785156 361.6875 433.644531 324.296875 436.78125 317.421875 C 438.988281 312.589844 441.847656 311.941406 443.359375 311.980469 C 444.25 306.992188 447.136719 292.460938 451.980469 283.070312 C 448.277344 281.433594 445.558594 279.996094 444.550781 278.949219 C 439.488281 273.691406 448.191406 271.375 457.554688 266.1875 L 463.003906 263.160156 C 475.765625 256.074219 499.53125 242.878906 499.53125 242.878906 L 550.882812 214.367188 C 552.144531 213.660156 553.699219 213.726562 554.898438 214.527344 L 644.941406 274.464844 C 647.851562 276.402344 646.902344 280.90625 643.449219 281.492188 L 600.453125 288.84375 C 599.390625 292.191406 598.109375 295.246094 596.882812 297.800781 C 605.878906 299.175781 619.695312 302.40625 621.941406 309.496094 C 625.324219 320.152344 620.878906 325.542969 637.714844 323.84375 C 654.546875 322.140625 646.746094 335.28125 646.746094 335.28125 C 646.746094 335.28125 671.164062 331.304688 670.65625 341.898438 C 670.152344 352.496094 662.371094 358.933594 662.371094 358.933594 C 662.371094 358.933594 684.15625 359.925781 684.101562 373.742188 C 684.039062 387.558594 674.105469 388.882812 674.105469 388.882812 C 674.105469 388.882812 690.003906 395.320312 682.589844 406.039062 C 675.171875 416.753906 665.847656 405.238281 665.847656 405.238281 C 665.847656 405.238281 670.144531 421.898438 659.46875 419.890625 C 648.792969 417.890625 648.945312 408.441406 648.945312 408.441406 C 648.945312 408.441406 647.875 422.027344 643.082031 425.121094 C 683.839844 438.738281 727.378906 458.789062 760.726562 496.117188 C 803.003906 543.4375 818.601562 574.953125 804.71875 638.085938 " fill-opacity="1" fill-rule="nonzero"/></g><path fill="#cdeaec" d="M 596.71875 412.464844 C 596.859375 412.769531 596.8125 413.136719 596.578125 413.402344 L 574.304688 438.359375 C 574.144531 438.542969 573.90625 438.644531 573.660156 438.644531 C 573.625 438.644531 573.585938 438.644531 573.546875 438.636719 C 573.261719 438.601562 573.011719 438.421875 572.886719 438.164062 C 571.664062 435.660156 570.050781 432.527344 568.421875 429.574219 L 562.320312 434.085938 L 578.738281 464.816406 C 602.496094 444.050781 611.089844 416.414062 611.398438 415.414062 C 611.402344 415.390625 611.414062 415.355469 611.414062 415.355469 C 607.128906 414.101562 601.863281 413.160156 596.71875 412.464844 Z M 575.996094 410.789062 C 554.773438 427.53125 534.109375 410.621094 534.109375 410.621094 L 533.890625 410.667969 L 519.402344 413.570312 L 514.132812 414.625 C 514.183594 414.660156 514.242188 414.6875 514.292969 414.734375 L 536.949219 436.351562 C 539.085938 432.050781 545.167969 420.179688 547.828125 418.699219 C 550.523438 417.203125 553.972656 419.632812 555.324219 420.742188 C 556.746094 419.613281 560.308594 417.183594 563.042969 418.699219 C 565.679688 420.171875 571.691406 431.882812 573.871094 436.253906 L 595.273438 412.273438 C 585.3125 411 576.21875 410.621094 576.21875 410.621094 C 576.144531 410.683594 576.070312 410.734375 575.996094 410.789062 Z M 549.660156 434.007812 L 543.109375 428.371094 C 541.269531 431.652344 539.371094 435.316406 537.980469 438.164062 C 537.859375 438.410156 537.628906 438.582031 537.355469 438.632812 C 537.300781 438.640625 537.257812 438.644531 537.207031 438.644531 C 536.984375 438.644531 536.769531 438.5625 536.605469 438.410156 L 513.101562 415.976562 C 512.785156 415.675781 512.765625 415.195312 513.019531 414.847656 L 501.207031 417.21875 C 509.546875 440.769531 525.964844 456.074219 539.570312 465.265625 Z M 584.671875 544.785156 C 584.671875 552.589844 589.035156 559.375 595.453125 562.835938 L 587.628906 580.878906 L 597.9375 578.355469 L 601.300781 586.539062 L 605.984375 566.460938 L 615.574219 585.359375 L 616.789062 577.300781 L 626.5625 577.296875 L 615.375 562.5625 C 621.527344 559.023438 625.683594 552.394531 625.683594 544.785156 C 625.683594 533.460938 616.503906 524.277344 605.175781 524.277344 C 593.851562 524.277344 584.671875 533.460938 584.671875 544.785156 Z M 493.003906 537.46875 L 491.964844 519.464844 C 569.609375 514.417969 636.425781 513.15625 636.425781 513.15625 L 642.472656 627.355469 L 642.472656 627.351562 L 643.304688 643.136719 L 643.308594 643.144531 L 643.628906 649.242188 C 634.304688 652.011719 609.015625 659.195312 599.835938 658.65625 C 585.5 657.816406 584.535156 665.640625 584.683594 668.792969 C 584.910156 673.585938 590.871094 675.3125 593.105469 675.792969 C 593.09375 675.871094 593.074219 675.949219 593.082031 676.035156 C 593.09375 676.113281 593.121094 676.1875 593.148438 676.257812 C 591.214844 677.125 586.441406 680.007812 587.417969 687.09375 C 588.109375 692.109375 594.914062 693.566406 597.304688 693.925781 C 597.300781 693.980469 597.28125 694.027344 597.28125 694.085938 C 597.296875 694.273438 597.375 694.433594 597.488281 694.570312 C 596.140625 695.769531 593.394531 698.96875 595.683594 703.542969 C 598.023438 708.222656 602.960938 707.5625 604.902344 707.09375 C 604.929688 707.195312 604.976562 707.289062 605.042969 707.378906 C 603.710938 708.484375 600.972656 711.402344 602.140625 715.90625 C 603.230469 720.121094 613.261719 720.746094 626.007812 720.003906 C 618.296875 720.777344 610.816406 721.597656 603.605469 722.441406 C 603.605469 722.441406 516.527344 731.246094 504.550781 737.785156 L 498.074219 625.46875 L 498.074219 625.476562 L 497.890625 622.214844 C 502.445312 620.386719 506.195312 618.339844 508.894531 616.21875 C 515.945312 610.664062 511.363281 605.402344 509.542969 603.726562 C 509.75 603.484375 509.820312 603.144531 509.6875 602.832031 C 509.65625 602.769531 509.613281 602.722656 509.574219 602.671875 C 510.496094 601.890625 512.277344 600.027344 514.390625 596.019531 C 516.847656 591.371094 513.492188 588.039062 511.972656 586.84375 C 512.144531 586.601562 512.199219 586.292969 512.074219 586 C 512.058594 585.972656 512.03125 585.953125 512.015625 585.921875 C 513.203125 585.105469 515.683594 582.847656 518.34375 577.09375 C 522.046875 569.101562 514.390625 564.472656 514.390625 564.472656 C 514.390625 564.472656 514.570312 564.289062 514.855469 563.945312 C 515.285156 563.785156 515.714844 563.621094 516.15625 563.449219 C 516.601562 563.277344 516.824219 562.777344 516.648438 562.332031 C 516.582031 562.164062 516.457031 562.035156 516.320312 561.941406 C 518.285156 558.882812 520.597656 553.527344 517.171875 548.46875 C 513.421875 542.9375 502.421875 546.796875 497.011719 549.144531 C 496.828125 548.726562 496.351562 548.519531 495.925781 548.683594 C 495.285156 548.925781 494.585938 549.183594 493.847656 549.445312 Z M 451.980469 283.070312 C 452.785156 283.421875 453.636719 283.789062 454.527344 284.160156 C 452.21875 288.894531 449.125 297.402344 445.597656 312.5625 C 449.769531 314.625 448.140625 321.453125 448.140625 321.453125 L 442.6875 365.621094 L 423.785156 361.6875 C 423.785156 361.6875 433.644531 324.296875 436.78125 317.421875 C 438.988281 312.589844 441.847656 311.941406 443.359375 311.980469 C 444.25 306.992188 447.136719 292.460938 451.980469 283.070312 " fill-opacity="1" fill-rule="nonzero"/><g clip-path="url(#27bf4b1d09)"><path fill="#304850" d="M 546.40625 353.214844 C 543.261719 352.898438 541.214844 349.867188 541.195312 349.839844 C 540.925781 349.441406 540.394531 349.335938 540 349.59375 C 539.601562 349.859375 539.492188 350.390625 539.753906 350.789062 C 539.855469 350.941406 542.257812 354.519531 546.214844 354.929688 C 546.460938 354.953125 546.703125 354.960938 546.945312 354.960938 C 549.28125 354.960938 551.613281 353.816406 553.886719 351.546875 C 554.222656 351.207031 554.222656 350.660156 553.886719 350.320312 C 553.550781 349.988281 553.003906 349.988281 552.664062 350.320312 C 550.546875 352.445312 548.4375 353.410156 546.40625 353.214844 Z M 738.683594 568.144531 C 738.386719 567.769531 737.84375 567.710938 737.476562 568.007812 C 723.429688 579.164062 672.261719 600.929688 671.746094 601.148438 C 671.308594 601.332031 671.101562 601.839844 671.289062 602.277344 C 671.425781 602.609375 671.746094 602.800781 672.082031 602.800781 C 672.195312 602.800781 672.308594 602.78125 672.417969 602.734375 C 672.921875 602.519531 676.117188 601.160156 680.890625 599.0625 C 685.515625 605.066406 722.285156 655.46875 713.1875 728.339844 L 726.550781 720.273438 C 726.550781 720.273438 742.554688 664.136719 694.257812 593.054688 C 710.171875 585.746094 730.3125 575.894531 738.546875 569.355469 C 738.921875 569.058594 738.980469 568.515625 738.683594 568.144531 Z M 700.425781 453.734375 C 700.152344 454.058594 673.011719 486.726562 671.222656 521.945312 C 671.214844 522.109375 671.25 522.269531 671.332031 522.410156 C 671.507812 522.730469 689 554.523438 678.722656 585.082031 C 678.570312 585.53125 678.816406 586.023438 679.265625 586.175781 C 679.359375 586.203125 679.449219 586.21875 679.539062 586.21875 C 679.902344 586.21875 680.234375 585.996094 680.359375 585.632812 C 690.414062 555.722656 674.523438 524.730469 672.957031 521.792969 C 674.828125 487.253906 701.476562 455.167969 701.746094 454.839844 C 702.050781 454.480469 702.007812 453.933594 701.640625 453.628906 C 701.277344 453.320312 700.730469 453.363281 700.425781 453.734375 Z M 559.992188 479.726562 C 560 479.253906 559.621094 478.863281 559.148438 478.851562 C 559.140625 478.851562 559.132812 478.851562 559.128906 478.851562 C 558.660156 478.851562 558.277344 479.226562 558.269531 479.699219 L 557.640625 513.140625 C 557.632812 513.617188 558.011719 514.011719 558.488281 514.019531 C 558.496094 514.019531 558.5 514.019531 558.503906 514.019531 C 558.976562 514.019531 559.363281 513.644531 559.367188 513.175781 Z M 436.53125 539.320312 C 436.574219 539.761719 436.949219 540.097656 437.386719 540.097656 C 437.417969 540.097656 437.441406 540.097656 437.46875 540.09375 C 437.945312 540.046875 438.292969 539.628906 438.246094 539.152344 C 432.125 474.371094 414.871094 457.679688 414.140625 456.996094 C 413.792969 456.675781 413.25 456.695312 412.921875 457.042969 C 412.597656 457.394531 412.613281 457.9375 412.96875 458.261719 C 413.140625 458.425781 430.464844 475.1875 436.53125 539.320312 Z M 804.71875 638.085938 C 796.484375 675.527344 761.574219 702.066406 734.515625 717.472656 C 734.515625 717.472656 687.53125 795.203125 569.800781 805.925781 C 540.5625 808.59375 515.242188 806.855469 493.703125 802.742188 C 432.65625 789.402344 432.175781 718.542969 432.804688 703.144531 C 437.050781 693.332031 440.949219 682.164062 443.976562 669.636719 C 444.699219 666.640625 445.3125 663.59375 445.828125 660.519531 C 447.566406 650.203125 448.1875 639.523438 448.046875 628.960938 C 451.496094 629.183594 455.199219 629.308594 459.121094 629.253906 C 474.292969 629.0625 488.003906 626.171875 497.890625 622.214844 L 498.074219 625.476562 L 496.558594 750.855469 C 496.558594 750.855469 527.945312 741.679688 562.296875 732.675781 L 560.472656 804.957031 C 560.464844 805.4375 560.839844 805.835938 561.316406 805.84375 C 561.328125 805.84375 561.332031 805.84375 561.339844 805.84375 C 561.804688 805.84375 562.1875 805.472656 562.203125 805.003906 L 564.035156 732.21875 C 577.402344 728.730469 591.144531 725.289062 603.605469 722.441406 C 610.816406 721.597656 618.296875 720.777344 626.007812 720.003906 C 638.707031 719.261719 654.109375 717.167969 666.078125 715.90625 C 672.308594 715.253906 677.625 714.421875 682.089844 713.5625 C 687.054688 720.878906 693.292969 727.617188 701.089844 733.367188 C 701.488281 723.546875 701.339844 714.269531 700.796875 705.515625 C 699.277344 681.003906 694.53125 660.703125 689.117188 644.835938 C 679.816406 617.578125 668.605469 603.386719 668.605469 603.386719 C 668.605469 603.386719 665.378906 616.203125 664.347656 634.328125 L 642.472656 627.355469 L 636.425781 513.15625 C 636.425781 513.15625 569.609375 514.417969 491.964844 519.464844 L 493.003906 537.46875 C 469.902344 543.359375 472.160156 552.273438 459.121094 556.90625 C 452.4375 559.273438 444.316406 559.214844 437.988281 558.59375 C 437.140625 555.265625 436.324219 552.269531 435.582031 549.65625 C 435.90625 549.5625 436.167969 549.285156 436.203125 548.925781 C 436.253906 548.449219 435.910156 548.027344 435.4375 547.976562 L 368.347656 540.902344 C 367.855469 540.839844 367.453125 541.195312 367.402344 541.667969 C 367.351562 542.144531 367.695312 542.566406 368.167969 542.617188 L 403.320312 546.324219 C 377.136719 610.367188 404.351562 673.976562 405.253906 676.054688 C 336.726562 674.265625 315.816406 622.097656 315.257812 590.765625 C 314.625 555.429688 370.78125 470.25 420.628906 445.640625 C 433.957031 439.0625 447.210938 433.699219 459.488281 429.375 C 479.933594 422.171875 497.640625 417.847656 508.382812 415.5625 C 515.316406 414.089844 519.355469 413.457031 519.355469 413.457031 C 519.367188 413.5 519.386719 413.53125 519.402344 413.570312 L 514.132812 414.625 C 514.183594 414.660156 514.242188 414.6875 514.292969 414.734375 L 536.949219 436.351562 C 539.085938 432.050781 545.167969 420.179688 547.828125 418.699219 C 550.523438 417.203125 553.972656 419.632812 555.324219 420.742188 C 556.746094 419.613281 560.308594 417.183594 563.042969 418.699219 C 565.679688 420.171875 571.691406 431.882812 573.871094 436.253906 L 595.273438 412.273438 L 595.292969 412.257812 C 595.613281 411.902344 596.15625 411.875 596.511719 412.1875 C 596.601562 412.265625 596.671875 412.363281 596.71875 412.464844 C 596.859375 412.769531 596.8125 413.136719 596.578125 413.402344 L 574.304688 438.359375 C 574.144531 438.542969 573.90625 438.644531 573.660156 438.644531 C 573.625 438.644531 573.585938 438.644531 573.546875 438.636719 C 573.261719 438.601562 573.011719 438.421875 572.886719 438.164062 C 571.664062 435.660156 570.050781 432.527344 568.421875 429.574219 C 565.902344 424.992188 563.355469 420.851562 562.203125 420.210938 C 560.316406 419.160156 557.007812 421.519531 555.890625 422.515625 C 555.851562 422.550781 555.804688 422.5625 555.769531 422.589844 C 555.71875 422.617188 555.675781 422.648438 555.625 422.667969 C 555.574219 422.691406 555.523438 422.695312 555.46875 422.707031 C 555.414062 422.714844 555.363281 422.730469 555.304688 422.730469 C 555.246094 422.730469 555.195312 422.714844 555.132812 422.699219 C 555.082031 422.691406 555.035156 422.6875 554.984375 422.664062 C 554.929688 422.640625 554.882812 422.605469 554.832031 422.566406 C 554.796875 422.542969 554.757812 422.535156 554.726562 422.5 C 553.667969 421.515625 550.539062 419.167969 548.664062 420.210938 C 547.613281 420.792969 545.40625 424.285156 543.109375 428.371094 C 541.269531 431.652344 539.371094 435.316406 537.980469 438.164062 C 537.859375 438.410156 537.628906 438.582031 537.355469 438.632812 C 537.300781 438.640625 537.257812 438.644531 537.207031 438.644531 C 536.984375 438.644531 536.769531 438.5625 536.605469 438.410156 L 513.101562 415.976562 C 512.785156 415.675781 512.765625 415.195312 513.019531 414.847656 L 501.207031 417.21875 C 509.546875 440.769531 525.964844 456.074219 539.570312 465.265625 L 539.519531 465.429688 C 539.519531 465.429688 554.683594 475.203125 561.535156 476.777344 C 561.535156 476.777344 572.261719 471.472656 578.746094 464.832031 L 578.738281 464.816406 C 602.496094 444.050781 611.089844 416.414062 611.398438 415.414062 C 618.683594 417.496094 626.195312 419.707031 633.84375 422.121094 C 634.4375 422.308594 635.03125 422.496094 635.625 422.6875 C 638.101562 423.476562 640.585938 424.285156 643.082031 425.121094 C 683.839844 438.738281 727.378906 458.789062 760.726562 496.117188 C 803.003906 543.4375 818.601562 574.953125 804.71875 638.085938 Z M 494.628906 269.929688 C 494.960938 270.277344 495.507812 270.28125 495.851562 269.953125 C 496.316406 269.496094 543.484375 225.21875 597.5 269.992188 C 597.664062 270.128906 597.855469 270.191406 598.050781 270.191406 C 598.300781 270.191406 598.546875 270.085938 598.714844 269.882812 C 599.019531 269.515625 598.96875 268.972656 598.601562 268.667969 C 543.378906 222.886719 495.136719 268.246094 494.652344 268.710938 C 494.304688 269.039062 494.296875 269.585938 494.628906 269.929688 Z M 498.421875 302.375 C 498.0625 301.359375 497.730469 300.328125 497.421875 299.285156 C 497.863281 299.425781 498.105469 299.5 498.105469 299.5 L 492.136719 269.332031 C 480.457031 262.316406 499.464844 242.941406 499.53125 242.878906 L 550.882812 214.367188 C 552.144531 213.660156 553.699219 213.726562 554.898438 214.527344 L 644.941406 274.464844 C 647.851562 276.402344 646.902344 280.90625 643.449219 281.492188 L 600.453125 288.84375 C 599.390625 292.191406 598.109375 295.246094 596.882812 297.800781 C 594.570312 302.621094 592.460938 305.683594 592.460938 305.683594 C 592.460938 305.683594 583.847656 287.988281 552.121094 286.859375 C 548.707031 286.742188 545.453125 286.929688 542.355469 287.339844 C 542.265625 287.347656 542.179688 287.363281 542.085938 287.375 C 516.582031 290.859375 502.140625 310.167969 502.140625 310.167969 C 500.660156 307.917969 499.4375 305.234375 498.421875 302.375 Z M 429.289062 557.285156 C 430.859375 554.609375 432.632812 552.046875 434.65625 549.628906 L 415.675781 547.628906 C 412.910156 555.796875 391.910156 622.230469 420.085938 675.675781 C 424.519531 675.359375 429.105469 674.851562 433.882812 674.132812 C 433.882812 674.132812 423.828125 649.46875 420.28125 620.320312 C 417.699219 599.09375 418.574219 575.492188 429.289062 557.285156 Z M 600.984375 353.992188 C 601.148438 354.019531 601.34375 354.039062 601.554688 354.039062 C 602.359375 354.039062 603.441406 353.796875 604.089844 352.914062 C 605.003906 351.667969 604.761719 349.699219 603.355469 346.902344 C 602.496094 345.195312 602.339844 343.738281 602.886719 342.582031 C 603.847656 340.558594 606.667969 339.914062 606.703125 339.910156 C 607.164062 339.804688 607.460938 339.347656 607.359375 338.882812 C 607.257812 338.417969 606.804688 338.117188 606.335938 338.222656 C 606.183594 338.257812 602.667969 339.042969 601.332031 341.832031 C 600.535156 343.5 600.699219 345.46875 601.816406 347.679688 C 603.277344 350.574219 602.921875 351.585938 602.707031 351.890625 C 602.3125 352.429688 601.269531 352.292969 601.265625 352.292969 C 600.800781 352.214844 600.351562 352.53125 600.277344 353.003906 C 600.199219 353.480469 600.519531 353.917969 600.984375 353.992188 Z M 576.179688 332.378906 C 577.359375 332.359375 578.394531 331.460938 579.074219 330.09375 C 579.617188 329.015625 579.945312 327.636719 579.921875 326.125 C 579.90625 325 579.6875 323.957031 579.347656 323.054688 C 579.691406 322.773438 579.785156 322.289062 579.535156 321.914062 C 577.511719 318.886719 573.433594 318.492188 573.261719 318.476562 C 572.828125 318.429688 572.367188 318.785156 572.328125 319.261719 C 572.285156 319.734375 572.632812 320.152344 573.109375 320.199219 C 573.125 320.199219 573.710938 320.253906 574.507812 320.488281 C 573.136719 321.445312 572.195312 323.664062 572.238281 326.242188 C 572.273438 328.550781 573.097656 330.53125 574.269531 331.578125 C 574.839844 332.082031 575.484375 332.386719 576.179688 332.378906 Z M 502.261719 360.628906 C 502.25 360.636719 501.292969 361.050781 500.761719 360.640625 C 500.472656 360.410156 499.855469 359.527344 500.464844 356.34375 C 500.933594 353.914062 500.550781 351.976562 499.332031 350.589844 C 497.285156 348.273438 493.691406 348.476562 493.535156 348.488281 C 493.0625 348.519531 492.703125 348.925781 492.730469 349.398438 C 492.761719 349.871094 493.105469 350.238281 493.644531 350.210938 C 493.667969 350.210938 496.5625 350.058594 498.042969 351.742188 C 498.886719 352.699219 499.136719 354.140625 498.773438 356.015625 C 498.1875 359.097656 498.488281 361.058594 499.710938 362.003906 C 500.226562 362.40625 500.828125 362.546875 501.394531 362.546875 C 502.027344 362.546875 502.617188 362.367188 502.992188 362.191406 C 503.417969 361.992188 503.605469 361.484375 503.40625 361.050781 C 503.207031 360.621094 502.695312 360.441406 502.261719 360.628906 Z M 526.265625 332.625 C 526.980469 332.617188 527.636719 332.261719 528.203125 331.683594 C 529.257812 330.609375 529.945312 328.707031 529.914062 326.535156 C 529.894531 325.5 529.707031 324.546875 529.410156 323.695312 C 529.59375 323.464844 529.664062 323.15625 529.550781 322.859375 C 528.300781 319.582031 524.351562 319.253906 524.183594 319.238281 C 523.714844 319.191406 523.296875 319.558594 523.257812 320.035156 C 523.226562 320.507812 523.582031 320.921875 524.054688 320.957031 C 524.0625 320.957031 524.292969 320.980469 524.625 321.050781 C 523.296875 321.980469 522.386719 324.148438 522.421875 326.644531 C 522.453125 328.234375 522.859375 329.65625 523.496094 330.730469 C 524.199219 331.90625 525.175781 332.644531 526.265625 332.625 Z M 553.910156 342.4375 C 553.976562 342.441406 554.039062 342.441406 554.105469 342.441406 C 556.117188 342.441406 558.703125 341.144531 559.710938 338.878906 C 560.445312 337.222656 560.597656 334.511719 557.144531 330.996094 C 555.679688 329.5 555 327.90625 555.125 326.242188 C 555.390625 322.738281 559.089844 319.9375 559.125 319.910156 C 559.503906 319.621094 559.585938 319.085938 559.296875 318.707031 C 559.019531 318.320312 558.476562 318.242188 558.089844 318.523438 C 557.914062 318.660156 553.738281 321.8125 553.40625 326.101562 C 553.238281 328.285156 554.082031 330.339844 555.917969 332.207031 C 558.109375 334.441406 558.878906 336.503906 558.132812 338.175781 C 557.363281 339.914062 555.304688 340.773438 553.984375 340.714844 C 553.429688 340.667969 553.109375 341.066406 553.085938 341.539062 C 553.066406 342.015625 553.4375 342.417969 553.910156 342.4375 Z M 646.632812 647.503906 L 643.308594 643.144531 L 643.628906 649.242188 C 644.808594 648.894531 645.71875 648.617188 646.328125 648.4375 C 646.214844 648.078125 646.351562 647.714844 646.632812 647.503906 Z M 457.625 266.152344 C 457.601562 266.160156 457.578125 266.175781 457.554688 266.1875 L 463.003906 263.160156 C 460.839844 264.363281 458.984375 265.390625 457.625 266.152344 " fill-opacity="1" fill-rule="nonzero"/></g><path fill="#d95242" d="M 713.1875 728.339844 L 726.550781 720.273438 C 726.550781 720.273438 742.554688 664.136719 694.257812 593.054688 C 689.203125 595.371094 684.578125 597.441406 680.890625 599.0625 C 685.515625 605.066406 722.285156 655.46875 713.1875 728.339844 Z M 415.675781 547.628906 L 403.320312 546.324219 C 377.136719 610.367188 404.351562 673.976562 405.253906 676.054688 C 405.269531 676.085938 405.277344 676.105469 405.277344 676.105469 C 413.894531 676.664062 420.089844 675.683594 420.089844 675.683594 C 420.089844 675.683594 420.089844 675.683594 420.085938 675.675781 C 391.910156 622.230469 412.910156 555.796875 415.675781 547.628906 Z M 562.320312 434.085938 L 568.421875 429.574219 C 565.902344 424.992188 563.355469 420.851562 562.203125 420.210938 C 560.316406 419.160156 557.007812 421.519531 555.890625 422.515625 C 555.851562 422.550781 555.804688 422.5625 555.769531 422.589844 C 555.71875 422.617188 555.675781 422.648438 555.625 422.667969 C 555.574219 422.691406 555.523438 422.695312 555.46875 422.707031 C 555.414062 422.714844 555.363281 422.730469 555.304688 422.730469 C 555.246094 422.730469 555.195312 422.714844 555.132812 422.699219 C 555.082031 422.691406 555.035156 422.6875 554.984375 422.664062 C 554.929688 422.640625 554.882812 422.605469 554.832031 422.566406 C 554.796875 422.542969 554.757812 422.535156 554.726562 422.5 C 553.667969 421.515625 550.539062 419.167969 548.664062 420.210938 C 547.613281 420.792969 545.40625 424.285156 543.109375 428.371094 L 549.660156 434.007812 L 539.570312 465.265625 L 539.519531 465.429688 C 539.519531 465.429688 554.683594 475.203125 561.535156 476.777344 C 561.535156 476.777344 572.261719 471.472656 578.746094 464.832031 L 578.738281 464.816406 Z M 595.453125 562.835938 L 587.628906 580.878906 L 597.9375 578.355469 L 601.300781 586.539062 L 605.984375 566.460938 L 615.574219 585.359375 L 616.789062 577.300781 L 626.5625 577.296875 L 615.375 562.5625 C 621.527344 559.023438 625.683594 552.394531 625.683594 544.785156 C 625.683594 533.460938 616.503906 524.277344 605.175781 524.277344 C 593.851562 524.277344 584.671875 533.460938 584.671875 544.785156 C 584.671875 552.589844 589.035156 559.375 595.453125 562.835938 Z M 592.460938 305.683594 C 592.460938 305.683594 583.847656 287.988281 552.121094 286.859375 C 548.707031 286.742188 545.453125 286.929688 542.355469 287.339844 C 545.207031 292.589844 550.210938 299.933594 554.335938 296.121094 C 560.488281 290.445312 560.488281 290.445312 560.488281 290.445312 C 560.488281 290.445312 563.175781 302.097656 568.558594 300.308594 C 571.875 299.199219 573.125 297.066406 573.597656 295.597656 C 572.90625 299.765625 571.570312 310.820312 576.777344 311.0625 C 582.394531 311.324219 583.554688 308.386719 583.757812 307.644531 C 583.386719 309.285156 580.582031 322.546875 586.1875 324.507812 C 592.160156 326.605469 594.253906 320.625 594.253906 320.625 C 594.253906 320.625 589.175781 339.832031 599.039062 335.007812 C 600.007812 334.535156 600.851562 333.996094 601.589844 333.414062 C 607.742188 333.96875 612.777344 338.894531 613.253906 345.265625 C 613.773438 352.351562 608.453125 358.523438 601.363281 359.050781 C 599.863281 359.160156 598.414062 359 597.042969 358.625 C 594.105469 373.605469 588.300781 381.890625 578.429688 386.847656 C 576.992188 387.570312 575.492188 388.1875 573.957031 388.761719 L 575.996094 410.789062 C 576.070312 410.734375 576.144531 410.683594 576.21875 410.621094 C 576.21875 410.621094 585.3125 411 595.273438 412.273438 L 595.292969 412.257812 C 595.613281 411.902344 596.15625 411.875 596.511719 412.1875 C 596.601562 412.265625 596.671875 412.363281 596.71875 412.464844 C 601.863281 413.160156 607.128906 414.101562 611.414062 415.355469 C 611.414062 415.355469 611.402344 415.390625 611.398438 415.414062 C 618.683594 417.496094 626.195312 419.707031 633.84375 422.121094 C 633.945312 421.125 633.992188 420.152344 634.011719 419.230469 C 634.3125 420.410156 634.808594 421.617188 635.625 422.6875 C 638.101562 423.476562 640.585938 424.285156 643.082031 425.121094 C 647.875 422.027344 648.945312 408.441406 648.945312 408.441406 C 648.945312 408.441406 648.792969 417.890625 659.46875 419.890625 C 670.144531 421.898438 665.847656 405.238281 665.847656 405.238281 C 665.847656 405.238281 675.171875 416.753906 682.589844 406.039062 C 690.003906 395.320312 674.105469 388.882812 674.105469 388.882812 C 674.105469 388.882812 684.039062 387.558594 684.101562 373.742188 C 684.15625 359.925781 662.371094 358.933594 662.371094 358.933594 C 662.371094 358.933594 670.152344 352.496094 670.65625 341.898438 C 671.164062 331.304688 646.746094 335.28125 646.746094 335.28125 C 646.746094 335.28125 654.546875 322.140625 637.714844 323.84375 C 620.878906 325.542969 625.324219 320.152344 621.941406 309.496094 C 619.695312 302.40625 605.878906 299.175781 596.882812 297.800781 C 594.570312 302.621094 592.460938 305.683594 592.460938 305.683594 Z M 580.933594 358.210938 C 588.730469 358.09375 594.945312 351.679688 594.820312 343.886719 C 594.707031 336.101562 588.292969 329.886719 580.503906 330 C 580.019531 330.011719 579.542969 330.042969 579.074219 330.09375 C 578.394531 331.460938 577.359375 332.359375 576.179688 332.378906 C 575.484375 332.386719 574.839844 332.082031 574.269531 331.578125 C 569.65625 333.953125 566.527344 338.785156 566.617188 344.324219 C 566.730469 352.117188 573.148438 358.335938 580.933594 358.210938 Z M 537.136719 344.589844 C 537.042969 338.707031 533.359375 333.71875 528.203125 331.683594 C 527.636719 332.261719 526.980469 332.617188 526.265625 332.625 C 525.175781 332.644531 524.199219 331.90625 523.496094 330.730469 C 523.265625 330.71875 523.039062 330.699219 522.8125 330.699219 C 515.027344 330.828125 508.804688 337.230469 508.925781 345.023438 C 509.046875 352.820312 515.457031 359.03125 523.25 358.910156 C 531.035156 358.789062 537.257812 352.378906 537.136719 344.589844 Z M 453.34375 373.296875 C 455.898438 371.78125 458.65625 370.699219 460.585938 370.039062 C 458.484375 370.109375 455.054688 369.136719 450.230469 364.394531 C 441.566406 355.871094 467.5625 344.105469 467.5625 344.105469 C 461.285156 342.191406 467.859375 331.082031 477.421875 326.183594 C 480.132812 324.792969 483.089844 323.628906 485.925781 322.675781 C 483.613281 320.347656 481.296875 317.007812 481.605469 313.152344 C 482.027344 307.859375 492.410156 304.109375 498.421875 302.375 C 499.4375 305.234375 500.660156 307.917969 502.140625 310.167969 C 502.140625 310.167969 516.582031 290.859375 542.085938 287.375 C 539.335938 292.386719 532.898438 302.984375 527.132812 303.890625 C 521.984375 304.703125 520.609375 302.203125 520.257812 300.519531 C 520.527344 304.984375 520.769531 318.46875 513.574219 316.738281 C 509.246094 315.695312 507.613281 315.25 507.058594 315.0625 C 507.667969 316.472656 513.949219 331.152344 508.199219 331.988281 C 504.484375 332.535156 503.234375 332.410156 502.820312 332.234375 C 504.214844 333.992188 512.703125 345.015625 506.109375 346.214844 C 502.289062 346.910156 499.414062 345.785156 497.550781 343.53125 C 491.894531 345.363281 487.996094 350.855469 488.457031 357.042969 C 489 364.316406 495.332031 369.777344 502.597656 369.238281 C 504.4375 369.097656 506.160156 368.589844 507.699219 367.792969 C 510.691406 376.121094 515.210938 381.21875 521.835938 385.832031 C 525.402344 388.320312 529.488281 389.953125 533.890625 390.992188 L 533.890625 410.667969 L 519.402344 413.570312 C 519.386719 413.53125 519.367188 413.5 519.355469 413.457031 C 519.355469 413.457031 515.316406 414.089844 508.382812 415.5625 C 494.527344 411.652344 488.425781 398.914062 488.425781 398.914062 C 463.003906 403.148438 455.421875 382.332031 453.34375 373.296875 " fill-opacity="1" fill-rule="nonzero"/><path fill="#100f0d" d="M 432.804688 703.144531 C 432.886719 701.25 432.976562 700.183594 432.976562 700.183594 C 427.105469 719.242188 397.144531 756.777344 397.144531 756.777344 C 436.527344 800.722656 501.207031 804.054688 501.207031 804.054688 C 498.609375 803.710938 496.113281 803.265625 493.703125 802.742188 C 432.65625 789.402344 432.175781 718.542969 432.804688 703.144531 Z M 737.476562 568.007812 C 723.429688 579.164062 672.261719 600.929688 671.746094 601.148438 C 671.308594 601.332031 671.101562 601.839844 671.289062 602.277344 C 671.425781 602.609375 671.746094 602.800781 672.082031 602.800781 C 672.195312 602.800781 672.308594 602.78125 672.417969 602.734375 C 672.921875 602.519531 676.117188 601.160156 680.890625 599.0625 C 684.578125 597.441406 689.203125 595.371094 694.257812 593.054688 C 710.171875 585.746094 730.3125 575.894531 738.546875 569.355469 C 738.921875 569.058594 738.980469 568.515625 738.683594 568.144531 C 738.386719 567.769531 737.84375 567.710938 737.476562 568.007812 Z M 434.65625 549.628906 C 432.632812 552.046875 430.859375 554.609375 429.289062 557.285156 C 431.105469 557.660156 434.230469 558.222656 437.988281 558.59375 C 437.140625 555.265625 436.324219 552.269531 435.582031 549.65625 C 435.90625 549.5625 436.167969 549.285156 436.203125 548.925781 C 436.253906 548.449219 435.910156 548.027344 435.4375 547.976562 L 368.347656 540.902344 C 367.855469 540.839844 367.453125 541.195312 367.402344 541.667969 C 367.351562 542.144531 367.695312 542.566406 368.167969 542.617188 L 403.320312 546.324219 L 415.675781 547.628906 Z M 504.550781 737.785156 L 498.074219 625.46875 L 498.074219 625.476562 L 496.558594 750.855469 C 496.558594 750.855469 527.945312 741.679688 562.296875 732.675781 L 560.472656 804.957031 C 560.464844 805.4375 560.839844 805.835938 561.316406 805.84375 C 561.328125 805.84375 561.332031 805.84375 561.339844 805.84375 C 561.804688 805.84375 562.1875 805.472656 562.203125 805.003906 L 564.035156 732.21875 C 577.402344 728.730469 591.144531 725.289062 603.605469 722.441406 C 603.605469 722.441406 516.527344 731.246094 504.550781 737.785156 Z M 492.136719 269.332031 C 480.457031 262.316406 499.464844 242.941406 499.53125 242.878906 C 499.53125 242.878906 475.765625 256.074219 463.003906 263.160156 C 460.839844 264.363281 458.984375 265.390625 457.625 266.152344 C 457.601562 266.160156 457.578125 266.175781 457.554688 266.1875 C 448.191406 271.375 439.488281 273.691406 444.550781 278.949219 C 445.558594 279.996094 448.277344 281.433594 451.980469 283.070312 C 452.785156 283.421875 453.636719 283.789062 454.527344 284.160156 C 468.769531 290.105469 493.070312 297.898438 497.421875 299.285156 C 497.863281 299.425781 498.105469 299.5 498.105469 299.5 Z M 569.621094 388.222656 C 546.355469 395.375 533.890625 388.222656 533.890625 388.222656 L 533.890625 403.804688 C 562.386719 409.707031 569.621094 388.222656 569.621094 388.222656 Z M 495.851562 269.953125 C 496.316406 269.496094 543.484375 225.21875 597.5 269.992188 C 597.664062 270.128906 597.855469 270.191406 598.050781 270.191406 C 598.300781 270.191406 598.546875 270.085938 598.714844 269.882812 C 599.019531 269.515625 598.96875 268.972656 598.601562 268.667969 C 543.378906 222.886719 495.136719 268.246094 494.652344 268.710938 C 494.304688 269.039062 494.296875 269.585938 494.628906 269.929688 C 494.960938 270.277344 495.507812 270.28125 495.851562 269.953125 Z M 646.328125 648.4375 C 646.4375 648.808594 646.78125 649.046875 647.152344 649.046875 C 647.230469 649.046875 647.320312 649.035156 647.402344 649.007812 L 658.757812 645.539062 C 659.214844 645.398438 659.472656 644.917969 659.335938 644.460938 C 659.195312 644.007812 658.71875 643.75 658.253906 643.890625 L 646.898438 647.359375 C 646.796875 647.390625 646.710938 647.445312 646.632812 647.503906 C 646.351562 647.714844 646.214844 648.078125 646.328125 648.4375 Z M 605.71875 707.726562 C 605.726562 707.726562 605.738281 707.726562 605.746094 707.726562 C 605.941406 707.722656 625.375 707.042969 639.828125 702.640625 C 640.285156 702.5 640.542969 702.019531 640.402344 701.566406 C 640.265625 701.109375 639.789062 700.851562 639.328125 700.992188 C 625.09375 705.324219 605.878906 705.996094 605.691406 706 C 605.214844 706.015625 604.84375 706.414062 604.855469 706.894531 C 604.855469 706.964844 604.882812 707.03125 604.902344 707.09375 C 604.929688 707.195312 604.976562 707.289062 605.042969 707.378906 C 605.199219 707.585938 605.441406 707.726562 605.71875 707.726562 Z M 598.144531 694.894531 C 598.160156 694.894531 598.175781 694.894531 598.195312 694.894531 C 599.414062 694.824219 628.242188 693.148438 639.921875 688.09375 C 640.359375 687.910156 640.558594 687.398438 640.371094 686.964844 C 640.179688 686.523438 639.667969 686.324219 639.234375 686.515625 C 627.835938 691.441406 598.390625 693.15625 598.097656 693.175781 C 597.675781 693.199219 597.359375 693.527344 597.304688 693.925781 C 597.300781 693.980469 597.28125 694.027344 597.28125 694.085938 C 597.296875 694.273438 597.375 694.433594 597.488281 694.570312 C 597.644531 694.765625 597.875 694.894531 598.144531 694.894531 Z M 593.9375 676.808594 C 593.96875 676.808594 593.996094 676.808594 594.027344 676.804688 C 595.417969 676.664062 628.226562 673.277344 639.867188 669.1875 C 640.316406 669.03125 640.546875 668.539062 640.390625 668.089844 C 640.238281 667.640625 639.746094 667.402344 639.292969 667.5625 C 627.851562 671.585938 594.191406 675.050781 593.851562 675.089844 C 593.464844 675.128906 593.175781 675.425781 593.105469 675.792969 C 593.09375 675.871094 593.074219 675.949219 593.082031 676.035156 C 593.09375 676.113281 593.121094 676.1875 593.148438 676.257812 C 593.277344 676.582031 593.578125 676.808594 593.9375 676.808594 Z M 509.6875 602.832031 C 509.65625 602.769531 509.613281 602.722656 509.574219 602.671875 C 509.34375 602.359375 508.929688 602.222656 508.550781 602.378906 C 495.554688 608.023438 484.152344 608.199219 484.035156 608.203125 C 483.558594 608.207031 483.175781 608.597656 483.183594 609.070312 C 483.1875 609.542969 483.570312 609.925781 484.042969 609.925781 C 484.042969 609.925781 484.046875 609.925781 484.054688 609.925781 C 484.527344 609.921875 495.90625 609.753906 509.238281 603.964844 C 509.363281 603.910156 509.464844 603.828125 509.542969 603.726562 C 509.75 603.484375 509.820312 603.144531 509.6875 602.832031 Z M 512.074219 586 C 512.058594 585.972656 512.03125 585.953125 512.015625 585.921875 C 511.796875 585.550781 511.339844 585.382812 510.933594 585.558594 C 499.082031 590.773438 482.070312 589.601562 481.898438 589.585938 C 481.410156 589.550781 481.007812 589.910156 480.976562 590.390625 C 480.9375 590.863281 481.296875 591.273438 481.773438 591.3125 C 481.996094 591.324219 483.792969 591.449219 486.53125 591.449219 C 492.574219 591.449219 503.195312 590.84375 511.628906 587.140625 C 511.777344 587.074219 511.882812 586.964844 511.972656 586.84375 C 512.144531 586.601562 512.199219 586.292969 512.074219 586 Z M 516.648438 562.332031 C 516.582031 562.164062 516.457031 562.035156 516.320312 561.941406 C 516.09375 561.789062 515.808594 561.734375 515.535156 561.839844 C 495.640625 569.542969 481.886719 570.949219 481.75 570.964844 C 481.277344 571.015625 480.929688 571.429688 480.976562 571.910156 C 481.015625 572.355469 481.390625 572.6875 481.832031 572.6875 C 481.859375 572.6875 481.886719 572.683594 481.917969 572.683594 C 482.054688 572.667969 495.429688 571.300781 514.855469 563.945312 C 515.285156 563.785156 515.714844 563.621094 516.15625 563.449219 C 516.601562 563.277344 516.824219 562.777344 516.648438 562.332031 Z M 495.925781 548.683594 C 495.285156 548.925781 494.585938 549.183594 493.847656 549.445312 C 487.386719 551.753906 477.90625 554.570312 477.800781 554.605469 C 477.347656 554.738281 477.085938 555.21875 477.222656 555.675781 C 477.332031 556.050781 477.675781 556.292969 478.046875 556.292969 C 478.128906 556.292969 478.210938 556.285156 478.292969 556.253906 C 478.410156 556.222656 490.222656 552.714844 496.539062 550.292969 C 496.984375 550.125 497.203125 549.628906 497.035156 549.183594 C 497.03125 549.167969 497.019531 549.160156 497.011719 549.144531 C 496.828125 548.726562 496.351562 548.519531 495.925781 548.683594 Z M 559.148438 478.851562 C 559.140625 478.851562 559.132812 478.851562 559.128906 478.851562 C 558.660156 478.851562 558.277344 479.226562 558.269531 479.699219 L 557.640625 513.140625 C 557.632812 513.617188 558.011719 514.011719 558.488281 514.019531 C 558.496094 514.019531 558.5 514.019531 558.503906 514.019531 C 558.976562 514.019531 559.363281 513.644531 559.367188 513.175781 L 559.992188 479.726562 C 560 479.253906 559.621094 478.863281 559.148438 478.851562 Z M 671.222656 521.945312 C 671.214844 522.109375 671.25 522.269531 671.332031 522.410156 C 671.507812 522.730469 689 554.523438 678.722656 585.082031 C 678.570312 585.53125 678.816406 586.023438 679.265625 586.175781 C 679.359375 586.203125 679.449219 586.21875 679.539062 586.21875 C 679.902344 586.21875 680.234375 585.996094 680.359375 585.632812 C 690.414062 555.722656 674.523438 524.730469 672.957031 521.792969 C 674.828125 487.253906 701.476562 455.167969 701.746094 454.839844 C 702.050781 454.480469 702.007812 453.933594 701.640625 453.628906 C 701.277344 453.320312 700.730469 453.363281 700.425781 453.734375 C 700.152344 454.058594 673.011719 486.726562 671.222656 521.945312 Z M 436.53125 539.320312 C 436.574219 539.761719 436.949219 540.097656 437.386719 540.097656 C 437.417969 540.097656 437.441406 540.097656 437.46875 540.09375 C 437.945312 540.046875 438.292969 539.628906 438.246094 539.152344 C 432.125 474.371094 414.871094 457.679688 414.140625 456.996094 C 413.792969 456.675781 413.25 456.695312 412.921875 457.042969 C 412.597656 457.394531 412.613281 457.9375 412.96875 458.261719 C 413.140625 458.425781 430.464844 475.1875 436.53125 539.320312 Z M 689.117188 644.835938 C 679.816406 617.578125 668.605469 603.386719 668.605469 603.386719 C 668.605469 603.386719 665.378906 616.203125 664.347656 634.328125 L 686.691406 641.449219 C 687.554688 642.53125 688.351562 643.671875 689.117188 644.835938 Z M 682.089844 713.5625 C 687.054688 720.878906 693.292969 727.617188 701.089844 733.367188 C 701.488281 723.546875 701.339844 714.269531 700.796875 705.515625 C 700.679688 707.3125 700.574219 708.335938 700.574219 708.335938 C 700.574219 708.335938 694.804688 711.101562 682.089844 713.5625 Z M 448.046875 628.960938 C 432.375 627.921875 422.101562 624.625 422.101562 624.625 C 422.101562 624.625 421.238281 623.226562 420.28125 620.320312 C 423.828125 649.46875 433.882812 674.132812 433.882812 674.132812 C 433.882812 674.132812 439.617188 669.761719 445.828125 660.519531 C 447.566406 650.203125 448.1875 639.523438 448.046875 628.960938 Z M 508.382812 415.5625 C 497.640625 417.847656 479.933594 422.171875 459.488281 429.375 C 462.46875 422.792969 470.25 414.746094 470.25 414.746094 C 470.25 414.746094 464.871094 416.238281 453.214844 412.058594 C 441.566406 407.871094 460.09375 390.25 460.09375 390.25 C 460.09375 390.25 451.425781 395.324219 447.246094 384.867188 C 445.191406 379.738281 448.96875 375.886719 453.34375 373.296875 C 455.421875 382.332031 463.003906 403.148438 488.425781 398.914062 C 488.425781 398.914062 494.527344 411.652344 508.382812 415.5625 " fill-opacity="1" fill-rule="nonzero"/><g clip-path="url(#1c129e9fa7)"><path fill="#f9c19c" d="M 452.917969 737.597656 L 452.917969 737.625 C 452.886719 737.660156 452.859375 737.691406 452.832031 737.726562 C 449.582031 742.265625 445.894531 746.113281 441.777344 749.082031 C 423.753906 765.441406 411.515625 766.015625 411.511719 766.015625 C 391.265625 774.859375 366.230469 780.820312 355.75 764.832031 C 354.671875 763.191406 353.777344 761.367188 353.050781 759.390625 C 349.222656 769.082031 343.265625 779.195312 333.980469 786.878906 C 304.519531 787.910156 287.710938 774.496094 281.996094 768.871094 C 272.269531 770.472656 258.828125 772.285156 243.15625 773.304688 C 243.15625 773.308594 243.15625 773.308594 243.15625 773.308594 C 243.1875 773.792969 242.8125 774.199219 242.335938 774.222656 C 242.324219 774.226562 242.304688 774.226562 242.292969 774.226562 C 241.832031 774.226562 241.453125 773.871094 241.429688 773.410156 C 228.464844 774.203125 214.058594 774.441406 199.035156 773.574219 C 194.1875 779.054688 184.625 789.511719 177.496094 795.089844 C 125.496094 796.285156 105.859375 760.179688 105.859375 760.179688 L 107.332031 750.230469 C 98.53125 745.484375 90.144531 739.890625 82.394531 733.273438 L 82.894531 726.777344 C 66.648438 740.652344 47.484375 749.941406 38.066406 742.441406 C 37.269531 741.808594 36.542969 741.058594 35.894531 740.175781 C 27.84375 731.476562 0.0195312 698.476562 0.386719 658.164062 C 0.816406 611.046875 29.058594 554.484375 29.058594 554.484375 C 29.058594 554.484375 29.039062 554.539062 29 554.621094 C 33.273438 545.042969 37.996094 535.828125 43.058594 527.511719 C 56.042969 506.179688 79.039062 482.855469 101.324219 465.34375 L 82.394531 454.453125 C 88.015625 424.628906 112.652344 413.824219 112.652344 413.824219 L 137.417969 435.246094 C 139.269531 433.746094 152.25 423.957031 164.382812 432.980469 C 164.433594 432.914062 164.476562 432.847656 164.550781 432.796875 C 164.933594 432.511719 165.476562 432.589844 165.761719 432.96875 C 165.78125 432.996094 165.835938 433.078125 165.914062 433.183594 C 167.78125 432.574219 172.460938 431.457031 176.835938 433.601562 C 185.21875 431.503906 209.804688 426.003906 213.082031 432.707031 L 214.234375 420.296875 L 215.285156 408.945312 L 215.414062 407.589844 C 214.304688 407.140625 213.214844 406.652344 212.152344 406.125 C 201.152344 400.683594 194.648438 391.511719 191.292969 374.882812 C 189.773438 375.308594 188.160156 375.5 186.492188 375.386719 C 178.609375 374.851562 172.65625 368.027344 173.1875 360.140625 C 173.609375 354.011719 177.847656 349.0625 183.414062 347.417969 C 178.964844 336.539062 179.894531 327.410156 182.601562 320.371094 C 177.167969 318.136719 171.359375 315.632812 165.703125 313 C 152.496094 307.128906 135.941406 299.484375 133.320312 296.941406 C 128.855469 292.621094 131.417969 287.285156 138.277344 280.878906 C 145.136719 274.480469 190.96875 236.261719 201.765625 232.316406 C 218.851562 220.9375 233.925781 212.765625 239.597656 213.996094 C 254.570312 217.253906 350.230469 261.828125 350.558594 266.710938 C 350.71875 269.050781 340.003906 282.246094 327.378906 295.539062 C 352.6875 318.355469 353.90625 335.957031 353.109375 342.882812 C 355.300781 343.574219 358.53125 345.304688 359.957031 349.585938 C 363.761719 361.015625 361.371094 373.910156 361.371094 373.910156 C 353.265625 380.417969 339.886719 372.816406 339.886719 372.816406 C 339.886719 372.816406 342.207031 366.480469 343.320312 357.324219 C 344.722656 345.761719 348.257812 343.59375 348.257812 343.59375 L 348.90625 343.308594 C 350.972656 324.15625 337.792969 307.964844 325.65625 297.347656 C 318.101562 305.195312 310.027344 312.894531 303.265625 318.246094 C 307.707031 327.5625 305.476562 339.417969 302.90625 347.550781 C 309.15625 349.574219 313.488281 355.632812 313.015625 362.480469 C 312.460938 370.570312 305.46875 376.671875 297.390625 376.117188 C 295.886719 376.019531 294.453125 375.691406 293.117188 375.179688 C 290.128906 390.355469 284.546875 397.921875 275.03125 404.628906 C 273.328125 405.832031 271.519531 406.851562 269.621094 407.730469 L 273.148438 434.324219 C 273.207031 434.300781 298.566406 422.910156 328.792969 432.410156 C 328.792969 432.410156 365.535156 433.707031 392.769531 471.316406 C 420.003906 508.921875 459.339844 597.105469 467.988281 638.171875 C 474.917969 671.105469 469.886719 713.742188 452.917969 737.597656 " fill-opacity="1" fill-rule="nonzero"/></g><g clip-path="url(#fff859450c)"><path fill="#dc4d4e" d="M 182.496094 439.226562 C 182.539062 439.203125 182.570312 439.171875 182.617188 439.15625 C 183.070312 439 183.558594 439.238281 183.714844 439.6875 C 183.722656 439.703125 183.742188 439.757812 183.761719 439.808594 C 186.144531 439.5 192.867188 439.691406 195.664062 450.804688 C 196.125 450.695312 196.59375 450.972656 196.710938 451.433594 C 196.714844 451.453125 196.726562 451.492188 196.738281 451.558594 C 198.753906 451.589844 203.742188 453.160156 205.65625 467.316406 C 205.65625 467.316406 205.65625 474.253906 203.878906 485.113281 L 206.179688 486.957031 C 208.695312 468.046875 210.898438 452.910156 212.199219 443.832031 C 212.351562 442.777344 212.492188 441.796875 212.613281 440.914062 C 213.121094 437.367188 213.414062 435.171875 213.441406 434.574219 C 213.472656 433.863281 213.347656 433.246094 213.082031 432.707031 C 209.804688 426.003906 185.21875 431.503906 176.835938 433.601562 C 178.902344 434.613281 180.894531 436.355469 182.496094 439.226562 Z M 190.46875 675.78125 C 190.46875 635.617188 194.390625 588.136719 198.996094 545.960938 L 187.335938 534.691406 C 186.433594 536.386719 185.507812 538.085938 184.523438 539.789062 C 165.414062 572.664062 141.078125 642.605469 125.515625 657.195312 C 125.296875 657.394531 125.074219 657.585938 124.851562 657.785156 C 124.675781 659.546875 124.503906 661.304688 124.328125 663.050781 C 124.328125 663.066406 124.324219 663.089844 124.324219 663.109375 L 125.097656 661.625 L 116.742188 757.484375 C 138.429688 789.363281 177.496094 795.089844 177.496094 795.089844 C 184.625 789.511719 194.1875 779.054688 199.035156 773.574219 C 200.953125 771.40625 202.136719 770.015625 202.136719 770.015625 C 202.136719 770.015625 190.46875 717.28125 190.46875 675.78125 Z M 356.6875 717.222656 C 352.039062 701.480469 348.125 684.941406 344.847656 668.070312 L 330.085938 653.753906 C 324.175781 658.25 317.257812 661.699219 309.34375 662.8125 L 277.910156 625.941406 L 272.816406 630.613281 C 272.59375 630.675781 272.394531 630.707031 272.1875 630.761719 C 273.21875 653.023438 274.589844 672.414062 276.074219 688.996094 C 275.996094 683.929688 275.972656 680.824219 275.972656 680.824219 C 277.136719 697.277344 286 763.53125 286 763.53125 C 307.359375 783.894531 330.824219 786.59375 333.6875 786.851562 C 333.730469 786.855469 333.765625 786.859375 333.800781 786.859375 C 333.828125 786.867188 333.871094 786.871094 333.890625 786.871094 C 333.945312 786.875 333.980469 786.878906 333.980469 786.878906 C 343.265625 779.195312 349.222656 769.082031 353.050781 759.390625 C 359.566406 742.914062 359.917969 727.65625 359.917969 727.65625 C 358.800781 724.222656 357.730469 720.742188 356.6875 717.222656 Z M 272.742188 443.066406 C 272.535156 447.601562 272.34375 452.089844 272.167969 456.53125 C 271 485.960938 270.441406 513.21875 270.339844 538.3125 L 272.816406 540.296875 C 285.429688 537.992188 311.925781 543.710938 326.414062 555.640625 C 322.175781 521.4375 314.988281 448.1875 328.792969 432.410156 C 298.566406 422.910156 273.207031 434.300781 273.148438 434.324219 C 273.148438 434.324219 273.144531 434.328125 273.144531 434.328125 C 273.003906 437.261719 272.871094 440.167969 272.742188 443.066406 Z M 319.929688 601.863281 L 334.589844 608.960938 C 328.121094 605.285156 322.75 602.570312 319.929688 601.863281 Z M 293.34375 611.804688 L 291.777344 613.242188 C 297.753906 608.507812 304.847656 603.882812 311.390625 602.148438 C 302.203125 604.449219 293.34375 611.804688 293.34375 611.804688 Z M 225.097656 366.425781 C 225.152344 360.578125 221.730469 355.519531 216.765625 353.175781 C 215.972656 354.550781 214.839844 355.414062 213.589844 355.402344 C 211.984375 355.382812 210.597656 353.9375 209.890625 351.8125 C 202.265625 352.175781 196.15625 358.417969 196.085938 366.140625 C 196.007812 374.15625 202.433594 380.71875 210.449219 380.785156 C 218.460938 380.867188 225.015625 374.4375 225.097656 366.425781 Z M 266.742188 354.1875 C 267.394531 354.914062 268.191406 355.34375 269.046875 355.347656 C 270.609375 355.371094 271.988281 353.988281 272.71875 351.941406 C 273.421875 351.839844 274.144531 351.773438 274.878906 351.78125 C 282.890625 351.863281 289.324219 358.414062 289.253906 366.417969 C 289.167969 374.4375 282.613281 380.863281 274.601562 380.785156 C 266.589844 380.714844 260.160156 374.15625 260.238281 366.144531 C 260.285156 361.144531 262.863281 356.757812 266.742188 354.1875 " fill-opacity="1" fill-rule="nonzero"/></g><path fill="#cdeaec" d="M 355.75 619.199219 L 334.589844 608.960938 L 319.929688 601.863281 C 317.3125 601.148438 314.410156 601.34375 311.390625 602.148438 C 304.847656 603.882812 297.753906 608.507812 291.777344 613.242188 C 283.851562 619.515625 277.910156 625.941406 277.910156 625.941406 L 309.34375 662.8125 C 317.257812 661.699219 324.175781 658.25 330.085938 653.753906 C 347.089844 640.820312 355.75 619.199219 355.75 619.199219 Z M 127.414062 480.351562 L 128.066406 480.730469 L 129.523438 481.570312 C 129.523438 481.570312 129.859375 481.464844 130.433594 481.230469 C 131.65625 480.714844 133.992188 479.546875 136.699219 477.242188 C 141.996094 472.738281 148.6875 463.898438 151.144531 447.121094 L 149.050781 445.308594 L 147.878906 444.296875 L 137.417969 435.246094 L 112.652344 413.824219 C 112.652344 413.824219 88.015625 424.628906 82.394531 454.453125 L 101.324219 465.34375 L 115.71875 473.628906 Z M 271.878906 540.476562 C 272.183594 540.410156 272.5 540.351562 272.816406 540.296875 L 270.339844 538.3125 L 240.875 514.726562 L 239.285156 513.453125 L 206.179688 486.957031 L 203.878906 485.113281 C 201.785156 497.863281 197.226562 516.019531 187.335938 534.691406 L 198.996094 545.960938 L 229.835938 575.753906 L 233.789062 570.742188 C 246.851562 553.878906 260.492188 543.074219 271.878906 540.476562 Z M 241.546875 500.097656 C 241.746094 499.742188 242.160156 499.558594 242.554688 499.6875 C 243.007812 499.835938 243.261719 500.324219 243.113281 500.777344 C 243.113281 500.785156 243.109375 500.800781 243.101562 500.832031 C 244.050781 501.132812 244.957031 501.113281 245.796875 500.710938 C 253.171875 497.160156 264.6875 473.480469 272.167969 456.53125 C 272.34375 452.089844 272.535156 447.601562 272.742188 443.066406 C 252.355469 448.890625 223.433594 443.367188 212.613281 440.914062 C 212.492188 441.796875 212.351562 442.777344 212.199219 443.832031 C 217.121094 457.066406 231.460938 493.746094 241.546875 500.097656 Z M 325.65625 297.347656 C 326.230469 296.742188 326.808594 296.144531 327.378906 295.539062 C 352.6875 318.355469 353.90625 335.957031 353.109375 342.882812 C 355.300781 343.574219 358.53125 345.304688 359.957031 349.585938 C 363.761719 361.015625 361.371094 373.910156 361.371094 373.910156 C 353.265625 380.417969 339.886719 372.816406 339.886719 372.816406 C 339.886719 372.816406 342.207031 366.480469 343.320312 357.324219 C 344.722656 345.761719 348.257812 343.59375 348.257812 343.59375 L 348.90625 343.308594 C 350.972656 324.15625 337.792969 307.964844 325.65625 297.347656 " fill-opacity="1" fill-rule="nonzero"/><g clip-path="url(#a234b757b7)"><path fill="#304850" d="M 234.386719 377.347656 C 234.054688 377.695312 234.058594 378.238281 234.402344 378.570312 C 234.550781 378.710938 237.863281 381.886719 242.441406 381.886719 C 242.632812 381.886719 242.828125 381.875 243.023438 381.867188 C 246.222656 381.675781 249.175781 379.941406 251.800781 376.699219 C 252.101562 376.328125 252.042969 375.78125 251.667969 375.484375 C 251.304688 375.179688 250.753906 375.234375 250.453125 375.605469 C 248.148438 378.449219 245.621094 379.96875 242.9375 380.132812 C 238.859375 380.386719 235.644531 377.359375 235.613281 377.332031 C 235.269531 377 234.71875 377.003906 234.386719 377.347656 Z M 452.917969 737.597656 C 469.886719 713.742188 474.917969 671.105469 467.988281 638.171875 C 459.339844 597.105469 420.003906 508.921875 392.769531 471.316406 C 365.535156 433.707031 328.792969 432.410156 328.792969 432.410156 C 314.988281 448.1875 322.175781 521.4375 326.414062 555.640625 C 327.089844 556.195312 327.75 556.757812 328.367188 557.339844 C 330.101562 558.96875 332.839844 561.621094 336.300781 565.007812 L 333.121094 534.667969 C 333.066406 534.191406 333.414062 533.769531 333.890625 533.71875 C 334.351562 533.667969 334.792969 534.011719 334.839844 534.492188 L 338.128906 565.871094 C 338.160156 566.140625 338.054688 566.386719 337.878906 566.5625 C 363.777344 592.003906 423.894531 652.441406 423.894531 652.441406 L 431.363281 659.011719 C 439.792969 659.238281 452.738281 663.304688 455.882812 685.292969 C 457.289062 695.15625 456.300781 704.976562 454.21875 713.921875 C 453.765625 715.5 444.492188 746.644531 411.511719 766.015625 C 411.515625 766.015625 423.753906 765.441406 441.777344 749.082031 C 445.894531 746.113281 449.582031 742.265625 452.832031 737.726562 C 452.859375 737.691406 452.886719 737.660156 452.917969 737.625 Z M 127.414062 480.351562 C 127.429688 480.367188 127.667969 480.539062 128.066406 480.730469 Z M 136.699219 477.242188 C 133.992188 479.546875 131.65625 480.714844 130.433594 481.230469 C 132.109375 481.1875 134.332031 480.320312 136.699219 477.242188 Z M 147.878906 444.296875 L 149.050781 445.308594 C 148.648438 444.902344 148.257812 444.582031 147.878906 444.296875 Z M 32.253906 725.058594 C 32.253906 725.058594 39.117188 684.285156 66.117188 655.402344 C 59.984375 640.980469 62.320312 615.527344 73.316406 599.164062 C 73.316406 599.164062 111.574219 531.078125 113.84375 523.296875 C 116.113281 515.515625 109.914062 480.210938 112.507812 471.777344 L 115.71875 473.628906 L 101.324219 465.34375 C 79.039062 482.855469 56.042969 506.179688 43.058594 527.511719 C 37.996094 535.828125 33.273438 545.042969 29 554.621094 C 27.429688 558.15625 -6.738281 637.085938 32.253906 725.058594 Z M 186.574219 367.96875 C 186.566406 367.972656 185.359375 368.140625 184.882812 367.496094 C 184.628906 367.148438 184.214844 365.988281 185.835938 362.710938 C 187.046875 360.273438 187.210938 358.117188 186.324219 356.296875 C 184.851562 353.25 180.980469 352.402344 180.8125 352.371094 C 180.351562 352.277344 179.886719 352.574219 179.785156 353.039062 C 179.691406 353.507812 179.992188 353.972656 180.453125 354.066406 C 180.492188 354.074219 183.667969 354.78125 184.769531 357.058594 C 185.402344 358.371094 185.242188 360.015625 184.28125 361.941406 C 182.753906 365.027344 182.492188 367.1875 183.496094 368.535156 C 184.25 369.550781 185.480469 369.722656 186.226562 369.722656 C 186.585938 369.722656 186.835938 369.683594 186.863281 369.679688 C 187.335938 369.601562 187.648438 369.152344 187.570312 368.683594 C 187.492188 368.210938 187.042969 367.898438 186.574219 367.96875 Z M 213.589844 355.402344 C 214.839844 355.414062 215.972656 354.550781 216.765625 353.175781 C 217.464844 351.960938 217.90625 350.34375 217.921875 348.558594 C 217.957031 345.628906 216.847656 343.132812 215.265625 342.113281 C 216.195312 341.828125 216.894531 341.753906 216.910156 341.75 C 217.386719 341.707031 217.738281 341.277344 217.691406 340.804688 C 217.640625 340.328125 217.195312 339.980469 216.746094 340.023438 C 216.550781 340.042969 212.0625 340.507812 209.863281 343.84375 C 209.628906 344.207031 209.707031 344.675781 210.023438 344.957031 C 209.632812 345.984375 209.394531 347.1875 209.386719 348.476562 C 209.371094 349.683594 209.558594 350.824219 209.890625 351.8125 C 210.597656 353.9375 211.984375 355.382812 213.589844 355.402344 Z M 300.964844 355.441406 C 299.632812 356.96875 299.230469 359.09375 299.757812 361.757812 C 300.46875 365.351562 299.761719 366.363281 299.421875 366.632812 C 298.792969 367.125 297.675781 366.644531 297.671875 366.644531 C 297.234375 366.441406 296.71875 366.632812 296.519531 367.066406 C 296.320312 367.503906 296.503906 368.015625 296.941406 368.214844 C 296.992188 368.238281 297.757812 368.589844 298.679688 368.589844 C 299.265625 368.589844 299.914062 368.445312 300.492188 367.996094 C 301.8125 366.957031 302.125 364.804688 301.460938 361.421875 C 301.042969 359.316406 301.3125 357.6875 302.265625 356.585938 C 303.925781 354.675781 307.183594 354.824219 307.210938 354.828125 C 307.742188 354.871094 308.097656 354.488281 308.125 354.011719 C 308.152344 353.535156 307.789062 353.125 307.3125 353.097656 C 307.144531 353.085938 303.195312 352.886719 300.964844 355.441406 Z M 272.71875 351.941406 C 273.058594 350.976562 273.261719 349.871094 273.273438 348.683594 C 273.304688 345.84375 272.226562 343.398438 270.6875 342.410156 C 271.113281 342.308594 271.40625 342.28125 271.414062 342.277344 C 271.894531 342.238281 272.246094 341.820312 272.210938 341.34375 C 272.167969 340.863281 271.753906 340.515625 271.273438 340.550781 C 271.09375 340.566406 266.769531 340.953125 265.410156 344.546875 C 265.304688 344.824219 265.367188 345.109375 265.519531 345.332031 C 265.171875 346.300781 264.964844 347.417969 264.953125 348.613281 C 264.933594 350.929688 265.644531 352.976562 266.742188 354.1875 C 267.394531 354.914062 268.191406 355.34375 269.046875 355.347656 C 270.609375 355.371094 271.988281 353.988281 272.71875 351.941406 Z M 233.535156 339.960938 C 233.15625 339.679688 232.605469 339.761719 232.324219 340.148438 C 232.042969 340.535156 232.125 341.074219 232.511719 341.359375 C 232.550781 341.390625 236.707031 344.503906 237.027344 348.441406 C 237.183594 350.3125 236.429688 352.117188 234.789062 353.808594 C 231.011719 357.691406 231.1875 360.664062 232.007812 362.476562 C 233.117188 364.941406 235.949219 366.351562 238.144531 366.351562 C 238.226562 366.351562 238.308594 366.347656 238.386719 366.347656 C 238.867188 366.324219 239.230469 365.914062 239.207031 365.4375 C 239.1875 364.957031 238.824219 364.589844 238.300781 364.609375 C 236.941406 364.6875 234.472656 363.726562 233.589844 361.757812 C 232.738281 359.871094 233.582031 357.535156 236.035156 355.015625 C 238.042969 352.949219 238.957031 350.683594 238.753906 348.285156 C 238.359375 343.558594 233.730469 340.105469 233.535156 339.960938 Z M 245.796875 500.710938 C 244.957031 501.113281 244.050781 501.132812 243.101562 500.832031 C 242.960938 501.308594 241.972656 504.984375 240.875 514.726562 L 270.339844 538.3125 C 270.441406 513.21875 271 485.960938 272.167969 456.53125 C 264.6875 473.480469 253.171875 497.160156 245.796875 500.710938 Z M 239.285156 513.453125 C 240.433594 503.683594 241.433594 500.355469 241.464844 500.242188 C 241.484375 500.1875 241.519531 500.148438 241.546875 500.097656 C 231.460938 493.746094 217.121094 457.066406 212.199219 443.832031 C 210.898438 452.910156 208.695312 468.046875 206.179688 486.957031 Z M 235.898438 616.628906 C 230.828125 613.449219 229.828125 606.453125 229.632812 604.019531 C 229.617188 604.019531 229.597656 604.027344 229.585938 604.027344 C 229.382812 604.027344 229.175781 603.960938 229.011719 603.808594 C 228.761719 603.589844 228.683594 603.265625 228.75 602.964844 C 216.992188 600 220.167969 588.035156 220.167969 588.035156 L 229.835938 575.753906 L 198.996094 545.960938 C 194.390625 588.136719 190.46875 635.617188 190.46875 675.78125 C 190.46875 717.28125 202.136719 770.015625 202.136719 770.015625 C 202.136719 770.015625 200.953125 771.40625 199.035156 773.574219 C 214.058594 774.441406 228.464844 774.203125 241.429688 773.410156 C 241.429688 773.410156 241.425781 773.410156 241.425781 773.40625 C 237.78125 706.445312 236.242188 655.386719 235.898438 616.628906 Z M 279.746094 766.449219 C 277.21875 749.515625 276.335938 706.941406 276.074219 688.996094 C 274.589844 672.414062 273.21875 653.023438 272.1875 630.761719 C 263.753906 632.96875 260.066406 628.480469 258.949219 626.617188 C 258.820312 626.683594 258.683594 626.722656 258.542969 626.722656 C 258.359375 626.722656 258.171875 626.660156 258.011719 626.539062 C 257.863281 626.421875 257.777344 626.265625 257.730469 626.09375 C 249.597656 628.273438 245.539062 621.28125 244.40625 618.863281 C 244.300781 618.910156 244.183594 618.941406 244.066406 618.941406 C 243.875 618.941406 243.6875 618.882812 243.527344 618.753906 C 243.335938 618.601562 243.226562 618.386719 243.203125 618.160156 C 241.015625 618.347656 239.175781 618.078125 237.636719 617.492188 C 238 656.09375 239.539062 706.847656 243.15625 773.304688 C 258.828125 772.285156 272.269531 770.472656 281.996094 768.871094 C 280.492188 767.398438 279.746094 766.449219 279.746094 766.449219 Z M 124.324219 663.109375 C 124.324219 663.089844 124.328125 663.066406 124.328125 663.050781 C 124.3125 663.097656 124.296875 663.148438 124.273438 663.203125 Z M 105.429688 700.960938 C 100.402344 709.554688 92.117188 718.902344 82.894531 726.777344 L 82.394531 733.273438 C 90.144531 739.890625 98.53125 745.484375 107.332031 750.230469 L 118.058594 677.679688 C 114.625 684.742188 110.40625 692.449219 105.429688 700.960938 Z M 295.34375 264.628906 C 295.222656 269.03125 294.402344 298.816406 292.660156 303.785156 C 292.5 304.242188 292.738281 304.734375 293.191406 304.894531 C 293.285156 304.925781 293.378906 304.941406 293.476562 304.941406 C 293.835938 304.941406 294.171875 304.71875 294.292969 304.359375 C 296.257812 298.761719 297.054688 265.539062 297.085938 264.128906 C 297.09375 263.796875 296.914062 263.488281 296.621094 263.332031 C 233.175781 230.464844 188.753906 266.933594 188.3125 267.308594 C 187.949219 267.617188 187.902344 268.164062 188.207031 268.527344 C 188.519531 268.894531 189.0625 268.941406 189.433594 268.632812 C 189.863281 268.269531 233.183594 232.714844 295.34375 264.628906 Z M 242.894531 315.066406 L 289.785156 305.464844 C 290.25 305.375 290.554688 304.917969 290.460938 304.445312 C 290.359375 303.976562 289.910156 303.675781 289.433594 303.769531 L 242.640625 313.355469 C 238.757812 313.71875 210.597656 308.667969 196.25 305.941406 C 195.773438 305.851562 195.320312 306.164062 195.230469 306.632812 C 195.144531 307.105469 195.453125 307.558594 195.921875 307.652344 C 197.574219 307.964844 235.214844 315.089844 242.300781 315.089844 C 242.53125 315.089844 242.730469 315.082031 242.894531 315.066406 Z M 183.414062 347.417969 C 178.964844 336.539062 179.894531 327.410156 182.601562 320.371094 C 177.167969 318.136719 171.359375 315.632812 165.703125 313 C 174.972656 317.121094 182.597656 320.371094 182.597656 320.371094 C 183.960938 315.960938 192.414062 305.9375 192.414062 305.9375 L 187.460938 268.988281 C 177.8125 249.222656 201.769531 232.316406 201.769531 232.316406 C 201.769531 232.316406 201.765625 232.316406 201.765625 232.316406 C 218.851562 220.9375 233.925781 212.765625 239.597656 213.996094 C 254.570312 217.253906 350.230469 261.828125 350.558594 266.710938 C 350.71875 269.050781 340.003906 282.246094 327.378906 295.539062 C 326.808594 296.144531 326.230469 296.742188 325.65625 297.347656 C 318.101562 305.195312 310.027344 312.894531 303.265625 318.246094 C 307.707031 327.5625 305.476562 339.417969 302.90625 347.550781 C 301.785156 347.183594 300.609375 346.9375 299.378906 346.851562 C 298.433594 346.785156 297.507812 346.820312 296.605469 346.933594 L 294.324219 355.402344 L 289.578125 357.71875 L 288.367188 350.789062 C 283.378906 348.320312 283.714844 338.292969 283.714844 338.292969 C 262.363281 342.847656 242.722656 322.671875 242.722656 322.671875 C 242.722656 329.507812 252.671875 333.414062 252.671875 333.414062 C 239.71875 335.199219 226.167969 322.113281 218.941406 313.730469 C 217.261719 318.039062 213.097656 327.058594 205.917969 332.601562 C 205.917969 332.601562 206.632812 341.414062 198.5 343.136719 L 191.828125 353.957031 L 187.460938 350.789062 C 187.460938 350.789062 187.230469 349.28125 187.011719 346.828125 C 185.765625 346.863281 184.570312 347.078125 183.414062 347.417969 Z M 344.847656 668.070312 L 370.640625 693.109375 C 364.664062 700.730469 359.996094 708.992188 356.6875 717.222656 C 352.039062 701.480469 348.125 684.941406 344.847656 668.070312 " fill-opacity="1" fill-rule="nonzero"/></g><g clip-path="url(#6f2ab14d5b)"><path fill="#100f0d" d="M 289.785156 305.464844 C 290.25 305.375 290.554688 304.917969 290.460938 304.445312 C 290.359375 303.976562 289.910156 303.675781 289.433594 303.769531 L 242.640625 313.355469 C 238.757812 313.71875 210.597656 308.667969 196.25 305.941406 C 195.773438 305.851562 195.320312 306.164062 195.230469 306.632812 C 195.144531 307.105469 195.453125 307.558594 195.921875 307.652344 C 197.574219 307.964844 235.214844 315.089844 242.300781 315.089844 C 242.53125 315.089844 242.730469 315.082031 242.894531 315.066406 Z M 295.34375 264.628906 C 295.222656 269.03125 294.402344 298.816406 292.660156 303.785156 C 292.5 304.242188 292.738281 304.734375 293.191406 304.894531 C 293.285156 304.925781 293.378906 304.941406 293.476562 304.941406 C 293.835938 304.941406 294.171875 304.71875 294.292969 304.359375 C 296.257812 298.761719 297.054688 265.539062 297.085938 264.128906 C 297.09375 263.796875 296.914062 263.488281 296.621094 263.332031 C 233.175781 230.464844 188.753906 266.933594 188.3125 267.308594 C 187.949219 267.617188 187.902344 268.164062 188.207031 268.527344 C 188.519531 268.894531 189.0625 268.941406 189.433594 268.632812 C 189.863281 268.269531 233.183594 232.714844 295.34375 264.628906 Z M 192.414062 305.9375 L 187.460938 268.988281 C 177.8125 249.222656 201.769531 232.316406 201.769531 232.316406 C 201.769531 232.316406 201.765625 232.316406 201.765625 232.316406 C 190.96875 236.261719 145.136719 274.480469 138.277344 280.878906 C 131.417969 287.285156 128.855469 292.621094 133.320312 296.941406 C 135.941406 299.484375 152.496094 307.128906 165.703125 313 C 174.972656 317.121094 182.597656 320.371094 182.597656 320.371094 C 183.960938 315.960938 192.414062 305.9375 192.414062 305.9375 Z M 267.632812 411.121094 C 267.632812 411.121094 236.097656 422.125 215.285156 408.945312 L 214.234375 420.296875 L 213.988281 422.96875 C 213.988281 422.96875 243.578125 430.78125 267.632812 411.121094 Z M 337.265625 566.832031 C 337.296875 566.832031 337.328125 566.832031 337.355469 566.824219 C 337.566406 566.804688 337.742188 566.703125 337.878906 566.5625 C 338.054688 566.386719 338.160156 566.140625 338.128906 565.871094 L 334.839844 534.492188 C 334.792969 534.011719 334.351562 533.667969 333.890625 533.71875 C 333.414062 533.769531 333.066406 534.191406 333.121094 534.667969 L 336.300781 565.007812 L 336.40625 566.054688 C 336.453125 566.5 336.832031 566.832031 337.265625 566.832031 Z M 333.800781 786.859375 C 333.765625 786.859375 333.738281 786.855469 333.6875 786.851562 C 330.824219 786.59375 307.359375 783.894531 286 763.53125 C 286 763.53125 277.136719 697.277344 275.972656 680.824219 C 275.972656 680.824219 275.996094 683.929688 276.074219 688.996094 C 276.335938 706.941406 277.21875 749.515625 279.746094 766.449219 C 279.746094 766.449219 280.492188 767.398438 281.996094 768.871094 C 287.710938 774.496094 304.519531 787.910156 333.980469 786.878906 C 333.980469 786.878906 333.945312 786.875 333.890625 786.871094 C 333.871094 786.871094 333.828125 786.867188 333.800781 786.859375 Z M 116.742188 757.484375 L 125.097656 661.625 L 124.324219 663.109375 L 124.273438 663.203125 C 124.296875 663.148438 124.3125 663.097656 124.328125 663.050781 C 124.503906 661.304688 124.675781 659.546875 124.851562 657.785156 C 109.195312 671.824219 82.558594 673.476562 71.046875 662.8125 C 69.03125 660.953125 67.398438 658.410156 66.117188 655.402344 C 39.117188 684.285156 32.253906 725.058594 32.253906 725.058594 C -6.738281 637.085938 27.429688 558.15625 29 554.621094 C 29.039062 554.539062 29.058594 554.484375 29.058594 554.484375 C 29.058594 554.484375 0.816406 611.046875 0.386719 658.164062 C 0.0195312 698.476562 27.84375 731.476562 35.894531 740.175781 C 36.542969 741.058594 37.269531 741.808594 38.066406 742.441406 C 47.484375 749.941406 66.648438 740.652344 82.894531 726.777344 C 92.117188 718.902344 100.402344 709.554688 105.429688 700.960938 C 110.40625 692.449219 114.625 684.742188 118.058594 677.679688 L 107.332031 750.230469 L 105.859375 760.179688 C 105.859375 760.179688 125.496094 796.285156 177.496094 795.089844 C 177.496094 795.089844 138.429688 789.363281 116.742188 757.484375 Z M 279.671875 600.34375 C 279.960938 599.96875 279.898438 599.421875 279.519531 599.121094 C 279.144531 598.835938 278.597656 598.894531 278.304688 599.273438 L 257.863281 625.320312 C 257.6875 625.546875 257.65625 625.835938 257.730469 626.09375 C 257.777344 626.265625 257.863281 626.421875 258.011719 626.539062 C 258.171875 626.660156 258.359375 626.722656 258.542969 626.722656 C 258.683594 626.722656 258.820312 626.683594 258.949219 626.617188 C 259.054688 626.5625 259.152344 626.488281 259.230469 626.386719 Z M 267.996094 589.273438 C 268.292969 588.894531 268.230469 588.347656 267.855469 588.050781 C 267.480469 587.757812 266.9375 587.816406 266.636719 588.191406 L 243.386719 617.539062 C 243.242188 617.71875 243.1875 617.941406 243.203125 618.160156 C 243.226562 618.386719 243.335938 618.601562 243.527344 618.753906 C 243.6875 618.882812 243.875 618.941406 244.066406 618.941406 C 244.183594 618.941406 244.300781 618.910156 244.40625 618.863281 C 244.535156 618.808594 244.652344 618.726562 244.742188 618.613281 Z M 255.648438 574.871094 C 255.964844 574.515625 255.929688 573.96875 255.570312 573.652344 C 255.210938 573.332031 254.660156 573.371094 254.34375 573.730469 L 228.929688 602.589844 C 228.835938 602.695312 228.78125 602.828125 228.75 602.964844 C 228.683594 603.265625 228.761719 603.589844 229.011719 603.808594 C 229.175781 603.960938 229.382812 604.027344 229.585938 604.027344 C 229.597656 604.027344 229.617188 604.019531 229.632812 604.019531 C 229.859375 604.003906 230.074219 603.914062 230.234375 603.730469 Z M 195.664062 450.804688 C 195.664062 450.804688 195.660156 450.804688 195.660156 450.804688 C 195.195312 450.921875 194.914062 451.394531 195.027344 451.855469 C 195.039062 451.921875 196.558594 458.128906 195.023438 464.960938 C 194.917969 465.429688 195.214844 465.894531 195.675781 465.996094 C 195.746094 466.011719 195.808594 466.019531 195.867188 466.019531 C 196.265625 466.019531 196.625 465.742188 196.714844 465.34375 C 198.242188 458.542969 196.960938 452.507812 196.738281 451.558594 C 196.726562 451.492188 196.714844 451.453125 196.710938 451.433594 C 196.59375 450.972656 196.125 450.695312 195.664062 450.804688 Z M 182.617188 439.15625 C 182.570312 439.171875 182.539062 439.203125 182.496094 439.226562 C 182.128906 439.425781 181.9375 439.855469 182.085938 440.261719 C 182.113281 440.34375 185 448.777344 182.273438 456.074219 C 182.105469 456.523438 182.335938 457.023438 182.785156 457.1875 C 182.882812 457.230469 182.984375 457.246094 183.089844 457.246094 C 183.4375 457.246094 183.769531 457.027344 183.898438 456.679688 C 186.707031 449.15625 184.125 440.890625 183.761719 439.808594 C 183.742188 439.757812 183.722656 439.703125 183.714844 439.6875 C 183.558594 439.238281 183.070312 439 182.617188 439.15625 Z M 164.375 434.007812 C 164.429688 434.085938 170.148438 441.9375 167.375 452.722656 C 167.253906 453.1875 167.535156 453.660156 168.003906 453.78125 C 168.070312 453.796875 168.144531 453.808594 168.214844 453.808594 C 168.601562 453.808594 168.957031 453.546875 169.054688 453.15625 C 171.824219 442.386719 166.859375 434.550781 165.914062 433.183594 C 165.835938 433.078125 165.78125 432.996094 165.761719 432.96875 C 165.476562 432.589844 164.933594 432.511719 164.550781 432.796875 C 164.476562 432.847656 164.433594 432.914062 164.382812 432.980469 C 164.160156 433.277344 164.136719 433.695312 164.375 434.007812 Z M 235.898438 616.628906 C 236.242188 655.386719 237.78125 706.445312 241.425781 773.40625 C 241.425781 773.410156 241.429688 773.410156 241.429688 773.410156 C 241.453125 773.871094 241.832031 774.226562 242.292969 774.226562 C 242.304688 774.226562 242.324219 774.226562 242.335938 774.222656 C 242.8125 774.199219 243.1875 773.792969 243.15625 773.308594 C 243.15625 773.308594 243.15625 773.308594 243.15625 773.304688 C 239.539062 706.847656 238 656.09375 237.636719 617.492188 C 237.011719 617.25 236.429688 616.964844 235.898438 616.628906 Z M 243.113281 500.777344 C 243.261719 500.324219 243.007812 499.835938 242.554688 499.6875 C 242.160156 499.558594 241.746094 499.742188 241.546875 500.097656 C 241.519531 500.148438 241.484375 500.1875 241.464844 500.242188 C 241.433594 500.355469 240.433594 503.683594 239.285156 513.453125 L 240.875 514.726562 C 241.972656 504.984375 242.960938 501.308594 243.101562 500.832031 C 243.109375 500.800781 243.113281 500.785156 243.113281 500.777344 Z M 411.511719 766.015625 C 391.265625 774.859375 366.230469 780.820312 355.75 764.832031 C 354.671875 763.191406 353.777344 761.367188 353.050781 759.390625 C 359.566406 742.914062 359.917969 727.65625 359.917969 727.65625 C 358.800781 724.222656 357.730469 720.742188 356.6875 717.222656 C 359.996094 708.992188 364.664062 700.730469 370.640625 693.109375 L 385.980469 707.988281 C 435.816406 713.0625 435.6875 662.8125 435.6875 662.8125 L 431.363281 659.011719 C 439.792969 659.238281 452.738281 663.304688 455.882812 685.292969 C 457.289062 695.15625 456.300781 704.976562 454.21875 713.921875 C 453.765625 715.5 444.492188 746.644531 411.511719 766.015625 " fill-opacity="1" fill-rule="nonzero"/></g></svg>