<?xml version="1.0" encoding="UTF-8"?>
<svg id="Capa_1" data-name="Capa 1" xmlns="http://www.w3.org/2000/svg" viewBox="0 0 170.08 170.08">
  <defs>
    <style>
      .cls-1 {
        fill: none;
        stroke: #010101;
        stroke-miterlimit: 10;
        stroke-width: 11px;
      }
    </style>
  </defs>
  <path class="cls-1" d="M80.11,5.48c8.47-.86,16.73.59,24.09,4.82,15.78,12.9,33.46,25.56,48.44,39.32,6.37,5.86,11.28,13.53,11.96,22.4,1.58,20.52-1.17,43.09-.06,63.82-1.67,11.5-9.2,22.19-20.13,26.55-6.87,2.74-22.12,2.73-29.69,2.07-6.2-.54-12.82-6.75-13.58-12.94-1.39-11.37,3.19-31.24-4.16-40.28-6.2-7.64-17.07-7.81-23.53-.39-8.03,9.23-2.88,29.31-4.57,40.99-.84,5.83-7.29,12.01-13.16,12.6-7.13.72-22.99.61-29.5-1.85-10.94-4.14-19.8-15.69-20.73-27.44-1.6-20.28,1.24-42.63,0-63.14.83-6.57,3.33-12.75,7.49-17.9,15.58-13.25,31.46-28.06,47.83-40.3,5.61-4.19,12.2-7.61,19.3-8.33Z"/>
</svg>