<?xml version="1.0" encoding="UTF-8"?>
<svg id="Capa_1" data-name="Capa 1" xmlns="http://www.w3.org/2000/svg" viewBox="0 0 170.08 170.08">
  <defs>
    <style>
      .cls-1 {
        fill: none;
        stroke: #010101;
        stroke-miterlimit: 10;
        stroke-width: 11px;
      }

      .cls-2 {
        fill: #010101;
      }
    </style>
  </defs>
  <path class="cls-1" d="M135.66,24.02C118.74,9.95,96.72,3.58,74.9,6.47,31.5,12.11.89,51.86,6.53,95.26c5.13,39.48,38.76,69.03,78.57,69.03h46.11c18.23-.02,33-14.79,33.02-33.02v-51.2c-1.41-21.81-11.74-42.09-28.56-56.05Z"/>
  <path class="cls-2" d="M56.67,49.58h28.37c3.92,0,7.09,3.18,7.09,7.09s-3.18,7.09-7.09,7.09h-28.37c-3.92,0-7.09-3.18-7.09-7.09s3.18-7.09,7.09-7.09Z"/>
  <path class="cls-2" d="M113.41,120.5h-56.74c-3.92,0-7.09-3.18-7.09-7.09s3.18-7.09,7.09-7.09h56.74c3.92,0,7.09,3.18,7.09,7.09s-3.18,7.09-7.09,7.09Z"/>
  <path class="cls-2" d="M113.41,92.13h-56.74c-3.92,0-7.09-3.18-7.09-7.09s3.18-7.09,7.09-7.09h56.74c3.92,0,7.09,3.18,7.09,7.09s-3.18,7.09-7.09,7.09Z"/>
</svg>