<?xml version="1.0" encoding="UTF-8"?>
<svg id="Capa_1" data-name="Capa 1" xmlns="http://www.w3.org/2000/svg" viewBox="0 0 170.08 170.08">
  <defs>
    <style>
      .cls-1 {
        fill: #010101;
      }
    </style>
  </defs>
  <path class="cls-1" d="M54.1,127.87c-6.57,0-11.9-5.33-11.9-11.9V35.07c0-3.94-3.2-7.14-7.14-7.14h0c-3.94,0-7.14,3.2-7.14,7.14v80.91c0,14.46,11.72,26.18,26.18,26.18h80.91c3.94,0,7.14-3.2,7.14-7.14h0c0-3.94-3.2-7.14-7.14-7.14H54.1Z"/>
  <path class="cls-1" d="M120.73,113.6c3.94,0,7.14-3.2,7.14-7.14v-28.56c0-3.94-3.2-7.14-7.14-7.14s-7.14,3.2-7.14,7.14v28.56c0,3.94,3.2,7.14,7.14,7.14Z"/>
  <path class="cls-1" d="M63.62,113.6c3.94,0,7.14-3.2,7.14-7.14v-28.56c0-3.94-3.2-7.14-7.14-7.14s-7.14,3.2-7.14,7.14v28.56c0,3.94,3.2,7.14,7.14,7.14Z"/>
  <path class="cls-1" d="M92.18,113.6c3.94,0,7.14-3.2,7.14-7.14v-52.35c0-3.94-3.2-7.14-7.14-7.14s-7.14,3.2-7.14,7.14v52.35c0,3.94,3.2,7.14,7.14,7.14Z"/>
</svg>